<?xml version="1.0" standalone="no"?>
<!DOCTYPE svg PUBLIC "-//W3C//DTD SVG 1.1//EN" "http://www.w3.org/Graphics/SVG/1.1/DTD/svg11.dtd" >
<svg xmlns="http://www.w3.org/2000/svg">
<metadata>
Created by FontPrep 20130207 at Mon Jul 28 15:00:23 2014
 By Zendy Wongso
Copyright 2006-2009 Dalton Maag Ltd. All rights reserved. This font may not be altered in any way without prior permission of Dalton Maag Ltd. 
</metadata>
<defs>
<font id="177370fcbd5ff2f0457311266b26303a" horiz-adv-x='1024' >
  <font-face 
    font-family="CoHeadline-Bold"
    font-weight="700"
    font-stretch="normal"
    units-per-em="2048"
    panose-1="2 0 8 3 0 0 0 0 0 0"
    ascent="1638"
    descent="-410"
    x-height="1044"
    cap-height="1405"
    bbox="-264 -430 2058 1630"
    underline-thickness="102"
    underline-position="-102"
    unicode-range="U+000D-007E"
  />
<missing-glyph horiz-adv-x="1024" 
 />
    <glyph glyph-name=".notdef" horiz-adv-x="1024" 
 />
    <glyph glyph-name=".null" horiz-adv-x="0" 
 />
    <glyph glyph-name="uni000D" unicode="&#xd;" horiz-adv-x="503" 
 />
    <glyph glyph-name="uni001D" horiz-adv-x="0" 
 />
    <glyph glyph-name="space" unicode=" " horiz-adv-x="503" 
 />
    <glyph glyph-name="exclam" unicode="!" horiz-adv-x="569" 
d="M88 154q0 33 14 75q25 41 45 58q25 27 62 41q31 16 75 16t76 -16q37 -14 62 -41q20 -16 45 -58q14 -43 14 -75t-14 -72q-23 -42 -42 -60t-65 -42q-82 -27 -151 0q-45 24 -65 42t-42 60q-14 39 -14 72zM291 1405q65 0 158 -31v-872h-330v758q0 145 172 145z" />
    <glyph glyph-name="quotedbl" unicode="&#x22;" horiz-adv-x="1173" 
d="M678 1368q0 143 168 141q63 0 107 -14t46 -14v-617h-321v504zM174 1368q0 143 168 141q63 0 107 -14t47 -14v-617h-322v504z" />
    <glyph glyph-name="numbersign" unicode="#" horiz-adv-x="1546" 
d="M614 569h269l49 293h-268zM1227 569q151 1 151 -119q0 -64 -17 -108q-17 -43 -20 -45h-223l-51 -297h-283l52 297h-267l-49 -297h-282l49 297h-64q-153 0 -151 133q0 58 31 130q3 7 6 9h225l49 293h-64q-83 0 -117 34t-34 101t37 138h225l31 182q12 72 57 96
q42 29 100 29t84 -8t58 -19l-49 -280h268l31 182q10 72 55 96q43 29 101 29t82 -8t59 -19l-50 -280h66q152 1 152 -129q0 -58 -17 -93q-12 -39 -20 -51h-226l-51 -293h66z" />
    <glyph glyph-name="dollar" unicode="$" horiz-adv-x="1341" 
d="M901 409q0 42 -33 70q-35 27 -120 45v-235q88 11 126 43q27 35 27 77zM422 1012q0 -31 3 -47q6 -30 67 -64q29 -12 83 -24v249q-93 -10 -135 -61q-18 -22 -18 -53zM575 1552q0 78 89 78q34 0 58 -8t26 -8v-199q206 -17 337 -90q95 -61 95 -137q0 -80 -76 -168
q-18 -16 -33 -27q-31 31 -117 76q-92 41 -206 55v-282l53 -11q230 -48 329 -131q113 -101 113 -283q0 -183 -129 -296t-366 -131v-211h-173v211q-263 15 -473 129q-41 20 -49 31l135 262q6 -6 43 -27q82 -39 201 -74q70 -16 143 -22v266l-51 10q-198 38 -295 115
q-57 39 -98 113t-41 169t29 177q66 157 241 233q88 35 215 45v135z" />
    <glyph glyph-name="percent" unicode="%" horiz-adv-x="2109" 
d="M1288 1405q27 45 60 75t107 29t149 -47q14 -8 18 -12l-842 -1450h-307zM1628 219q63 0 107 43q43 45 43 111q0 67 -43 111t-107 44t-106 -45q-43 -45 -43 -111t43 -109q43 -44 106 -44zM1200 373q0 166 123 291q132 118 304 118q93 0 173 -32t133 -86q57 -52 91 -128
t34 -164t-35 -162q-35 -75 -88 -126t-137 -88q-80 -31 -171 -31q-172 0 -304 119q-123 123 -123 289zM479 946q63 0 107 44t43 108q0 64 -43 111q-42 46 -106 46t-107 -46q-43 -47 -43 -111t43 -108t106 -44zM51 1100q0 88 35 164t88 127t133 85t171 34q178 -1 308 -119
q125 -125 124 -292t-124 -288q-63 -57 -139 -86q-74 -33 -168 -33t-172 33t-132 85t-89 127t-35 163z" />
    <glyph glyph-name="ampersand" unicode="&#x26;" horiz-adv-x="1480" 
d="M455 1413q88 29 259 29t298 -62q92 -45 92 -129q0 -54 -29 -95q-29 -40 -39 -46q-8 -14 -26 -23q-14 12 -43 23q-44 25 -122 40q-79 15 -141 15q-120 0 -175 -42q-54 -42 -54 -108t49 -110q55 -39 178 -39h562q90 0 129 -35q37 -37 37 -101t-17 -103q-10 -39 -22 -60
h-103v-565q-188 -37 -525 -37t-494 114t-156 316q0 119 63 197q59 78 154 125q-84 45 -136 123t-52 182t40 183q83 159 273 208zM956 567h-315q-98 0 -143 -45t-45 -108q0 -31 10 -58q39 -100 291 -100q110 0 202 12v299z" />
    <glyph glyph-name="quotesingle" unicode="'" 
d="M184 1368q0 143 168 141q53 0 82 -8t41 -11q11 -3 19 -6t12 -3v-617h-322v504z" />
    <glyph glyph-name="parenleft" unicode="(" horiz-adv-x="722" 
d="M692 1198q-270 -102 -270 -578q0 -374 156 -509q51 -45 114 -70v-311q-295 50 -450 286q-150 229 -150 605q0 187 38 339q78 311 300 453q117 72 262 96v-311z" />
    <glyph glyph-name="parenright" unicode=")" horiz-adv-x="722" 
d="M143 111q158 128 158 505t-158 514q-49 43 -112 68v311q145 -25 262 -96q111 -72 186 -188q72 -106 115 -267q37 -154 37 -338t-37 -337q-86 -320 -303 -455q-111 -74 -260 -98v311q66 25 112 70z" />
    <glyph glyph-name="asterisk" unicode="*" horiz-adv-x="1132" 
d="M1075 1053q0 -16 -2 -21v-14l-285 -84l211 -260l-237 -164l-195 287l-194 -287l-238 164l211 260l-285 84v14q-2 4 -2 20q0 136 64 189q27 27 72 27t88 -21l155 -69l-18 200v15q0 63 45 90q88 53 252 -2l-21 -303l156 69q43 21 88 21t73 -26q52 -49 58 -132q4 -41 4 -57z
" />
    <glyph glyph-name="plus" unicode="+" horiz-adv-x="1290" 
d="M1038 854q146 0 146 -152q0 -68 -12 -102q-12 -35 -19 -59h-346v-375h-324v375h-231q-146 -1 -146 151q0 68 12 103t19 59h346v240q-1 145 159 145q68 0 95 -9t39 -12q12 -2 20 -6t11 -4v-354h231z" />
    <glyph glyph-name="comma" unicode="," 
d="M176 219q20 68 55 105q35 36 101 36t135 -32q23 -14 41 -29q4 -6 12 -12t12 -13l-268 -618l-227 86z" />
    <glyph glyph-name="hyphen" unicode="-" 
d="M195 408q-134 0 -134 152q0 62 29 153h406q76 0 102 -45q31 -43 31 -108t-29 -152h-405z" />
    <glyph glyph-name="period" unicode="." 
d="M344 -35q-35 0 -74 15q-45 25 -61 45q-20 16 -45 61q-14 43 -14 78t14 74q40 81 106 106q31 16 75 16q122 0 183 -122q27 -75 0 -152q-25 -45 -45 -61q-16 -20 -61 -45q-43 -15 -78 -15z" />
    <glyph glyph-name="slash" unicode="/" horiz-adv-x="753" 
d="M426 1380q37 130 135 130q113 -1 157 -45q19 -19 26 -25t10 -10l-441 -1430h-313z" />
    <glyph glyph-name="zero" unicode="0" horiz-adv-x="1376" 
d="M687 1128q-121 0 -189 -104t-68 -322t68 -320q68 -103 189 -103q122 0 190 103t67 320q0 217 -67 322q-68 104 -190 104zM88 702q0 346 154 541q170 199 450 199q281 0 441 -199q72 -88 116 -231q39 -146 39 -310t-39 -309q-45 -145 -116 -229q-157 -199 -443 -199
q-287 0 -444 195q-158 195 -158 542z" />
    <glyph glyph-name="one" unicode="1" horiz-adv-x="978" 
d="M666 1399q46 -6 64 -15q18 -8 30 -12t14 -6v-1366h-332v1006l-247 -193q-10 6 -39 23q-68 51 -86 86t-18 90t40 98q41 43 109 92l121 90q27 18 71 51q113 62 170 62t103 -6z" />
    <glyph glyph-name="two" unicode="2" horiz-adv-x="1155" 
d="M698 970q0 62 -57 120q-59 55 -174 55q-113 0 -184 -60q-55 -39 -88 -110q-40 13 -65 32t-36 27q-16 14 -45 51q-18 31 -18 85t41 108q8 14 39 41q19 25 77 55q130 67 288 67q283 2 429 -130q142 -125 142 -343q1 -112 -51 -210t-110 -167t-119 -121q-60 -52 -89 -77
q-28 -25 -54 -45t-49 -37h482v-311h-1030v281q6 4 61 40q56 37 160 111t142 100t89 74q118 100 161 169q42 69 48 102q10 31 10 93z" />
    <glyph glyph-name="three" unicode="3" horiz-adv-x="1216" 
d="M524 868h21q113 0 153 41q43 37 43 97q0 66 -47 100q-47 47 -170 47q-68 0 -124 -19t-85 -44q-37 -25 -57 -54q-18 -20 -27 -45q-109 20 -155 119q-30 57 -2 127q8 25 39 63q25 25 47 39q32 25 92 49q128 52 280 53q265 2 418 -118q133 -116 131 -281q0 -114 -58 -194
t-140 -123q115 -45 170 -135q51 -90 51 -190q0 -197 -150 -314q-61 -53 -168 -90q-102 -31 -222 -31t-254 29t-234 84q-55 35 -60 39l150 252q69 -59 231 -95q68 -10 129 -10q131 0 181 47q53 43 53 109q0 145 -230 145h-141q-39 71 -40 151t41 116t134 36z" />
    <glyph glyph-name="four" unicode="4" horiz-adv-x="1298" 
d="M866 1405q138 0 197 -41v-784h18q90 0 130 -37t40 -97t-16 -110q-16 -49 -25 -64h-147v-272h-328v272h-309q-165 0 -254 60q-47 29 -78 82q-27 53 -26 121q0 126 67 268q31 61 70 123q67 92 107 141t111 114q146 133 290 195q82 29 153 29zM735 580v477q-47 -31 -104 -78
q-61 -57 -111 -119t-83 -128q-64 -129 -3 -142q20 -10 68 -10h233z" />
    <glyph glyph-name="five" unicode="5" horiz-adv-x="1177" 
d="M864 1405q170 1 170 -137q0 -102 -41 -170h-559l-6 -205q46 8 174 8t224 -38q97 -38 155 -97q113 -126 113 -315q0 -224 -148 -351q-66 -61 -174 -100q-110 -35 -234 -35t-261 25t-214 76q-37 20 -40 24l127 254q18 -14 125 -48q108 -34 201 -34q157 0 224 53
q52 45 54 123q0 33 -13 66q-8 33 -43 57q-70 58 -252 60q-89 0 -201 -18t-132 -30l20 637q4 195 203 195h528z" />
    <glyph glyph-name="six" unicode="6" horiz-adv-x="1269" 
d="M399 493q0 -101 65 -166q66 -65 172 -65t168 64t62 168t-63 170q-66 66 -168 66t-172 -66q-64 -70 -64 -171zM688 967h27q121 0 212 -40q175 -77 240 -247q31 -86 31 -192t-42 -206q-42 -99 -115 -168t-176 -109t-230 -40t-228 39q-209 81 -286 270q-41 98 -41 190
q0 152 67 302q29 55 74 131q70 98 92 129l242 324q72 92 182 92q45 0 104 -17t89 -49q20 -12 22 -18l-288 -395q8 4 24 4z" />
    <glyph glyph-name="seven" unicode="7" horiz-adv-x="1146" 
d="M893 1405q182 0 182 -188q0 -82 -88 -279q-45 -115 -139 -324q-95 -208 -123 -278q-49 -102 -84 -185t-70 -151h-348q1 8 51 120q145 324 165 372l100 225q9 25 63 147t94 221h-491q-94 0 -134 40q-40 41 -40 103t15 110t28 67h819z" />
    <glyph glyph-name="eight" unicode="8" horiz-adv-x="1392" 
d="M449 413q0 -71 59 -114q55 -47 188 -47t189 47q59 43 59 114t-59 119q-61 46 -189 46t-188 -46q-59 -48 -59 -119zM696 850q123 0 172 47q52 43 52 115t-52 106q-56 49 -173 49t-171 -49q-51 -33 -51 -105q0 -73 51 -116q49 -47 172 -47zM141 1022q0 90 39 174
q47 82 115 131q145 115 401 115q255 0 402 -115q68 -49 114 -131q39 -84 39 -174t-44 -171t-134 -136q103 -55 155 -139t52 -181q0 -202 -158 -313q-160 -117 -425 -117t-424 114q-160 114 -160 316q0 96 51 178q49 87 155 142q-90 55 -134 136t-44 171z" />
    <glyph glyph-name="nine" unicode="9" horiz-adv-x="1269" 
d="M631 680q102 0 172 65q63 70 63 171t-64 166t-172 65q-106 1 -168 -63t-62 -168t63 -171q66 -65 168 -65zM578 442h-27q-121 0 -212 40q-176 77 -241 247q-30 87 -30 193t42 205t114 168t176 109t231 40t228 -39q206 -80 286 -270q41 -99 41 -191q0 -150 -68 -301
q-29 -55 -74 -131q-70 -98 -92 -129l-295 -399h-395l340 462q-8 -4 -24 -4z" />
    <glyph glyph-name="colon" unicode=":" 
d="M344 -35q-35 0 -74 15q-45 25 -61 45q-20 16 -45 61q-14 43 -14 78t14 74q40 81 106 106q31 16 75 16q122 0 183 -122q27 -75 0 -152q-25 -45 -45 -61q-16 -20 -61 -45q-43 -15 -78 -15zM344 649q-35 0 -74 15q-45 25 -61 45q-20 16 -45 61q-14 43 -14 78t14 74
q40 81 106 106q31 16 75 16q122 0 183 -122q27 -75 0 -152q-25 -45 -45 -61q-16 -20 -61 -45q-43 -15 -78 -15z" />
    <glyph glyph-name="semicolon" unicode=";" 
d="M344 649q-35 0 -74 15q-45 25 -61 45q-20 16 -45 61q-14 43 -14 78t14 74q40 81 106 106q31 16 75 16q122 0 183 -122q27 -75 0 -152q-25 -45 -45 -61q-16 -20 -61 -45q-43 -15 -78 -15zM176 219q20 68 55 105q35 36 101 36t135 -32q23 -14 41 -29q4 -6 12 -12t12 -13
l-268 -618l-227 86z" />
    <glyph glyph-name="less" unicode="&#x3c;" horiz-adv-x="1290" 
d="M141 705q0 60 23 94q16 41 47 63l938 377v-340l-569 -197l569 -196v-340l-889 356q-119 52 -119 183z" />
    <glyph glyph-name="equal" unicode="=" horiz-adv-x="1290" 
d="M252 291q-146 -1 -146 151q0 68 12 103t19 59h901q146 0 146 -152q0 -68 -12 -102q-12 -35 -19 -59h-901zM252 801q-146 -1 -146 151q0 68 12 103t19 59h901q146 0 146 -152q0 -68 -12 -102q-12 -35 -19 -59h-901z" />
    <glyph glyph-name="greater" unicode="&#x3e;" horiz-adv-x="1290" 
d="M1149 700q0 -60 -23 -94q-16 -41 -47 -63l-938 -377v340l570 196l-570 197v340l889 -356q119 -52 119 -183z" />
    <glyph glyph-name="question" unicode="?" horiz-adv-x="1110" 
d="M289 154q0 33 14 75q25 41 45 58q25 27 62 41q30 16 74 16q86 0 139 -57q20 -16 45 -58q14 -43 14 -75t-14 -72q-23 -42 -42 -60t-65 -42q-83 -27 -151 0q-45 24 -65 42t-42 60q-14 39 -14 72zM322 498q0 102 38 166q39 63 128 113t143 97q59 47 59 118t-46 119t-156 48
t-183 -45q-72 -49 -104 -106q-70 16 -111 65q-47 47 -47 109q0 70 51 131q56 56 127 80q108 47 268 48q275 2 407 -115q132 -116 132 -294q0 -145 -70 -254q-62 -83 -149 -143q-27 -18 -115 -82q-45 -37 -45 -102h-327v47z" />
    <glyph glyph-name="at" unicode="@" horiz-adv-x="2023" 
d="M1143 446q-22 11 -116 11t-136 -31q-29 -29 -29 -85t31 -75q31 -31 141 -33l109 7v206zM647 850q0 162 289 162q135 0 218 -18q171 -38 239 -183q35 -74 34 -178v-391l191 8q29 113 30 258q2 293 -176 474t-460 181q-285 0 -461 -184t-176 -469q0 -139 48 -261t138 -206
q180 -180 510 -180q135 0 242 22t127 39l108 -252q-162 -81 -512 -84q-413 0 -688 260q-121 121 -196 291q-70 178 -70 378t71 368t191 293q123 124 294 194t374 70q403 0 667 -262q121 -121 192 -291q71 -169 71 -353t-31 -290t-68 -201q-60 -6 -225 -13q-166 -7 -232 -12
l-237 -2q-137 0 -223 11q-96 6 -181 41q-78 37 -122 98q-43 66 -43 172q0 156 104 229q102 78 328 78q102 0 129 -6q0 61 -35 94q-55 41 -180 41t-209 -55q-9 9 -17 12q-6 7 -15 19t-30 49q-8 29 -8 49z" />
    <glyph glyph-name="A" unicode="A" horiz-adv-x="1574" 
d="M956 612q-6 16 -21 58t-25 68q-10 24 -43 109q-32 85 -56 140q-10 33 -33 82q-18 -37 -45 -111q-26 -74 -43 -116q-18 -42 -42 -101t-48 -129h356zM642 1408q56 34 136 34t140 -29q20 -6 43 -20l20 -13q48 -81 143 -301q94 -221 148 -348t141 -338q18 -51 51 -132
t55 -141t46 -120h-377q-103 276 -115 303h-596l-112 -303h-355q53 141 90 230t146 360q74 172 134 315t165 379q41 90 97 124z" />
    <glyph glyph-name="B" unicode="B" horiz-adv-x="1400" 
d="M989 420q0 137 -188 137h-324v-270q2 0 68 -8q220 -11 288 2q68 12 100 31q56 33 56 108zM774 854q45 0 86 10q35 14 53 33q37 29 37 90q0 16 -8 53q-10 25 -37 47q-64 44 -178 45q-189 2 -250 -12v-266h297zM143 1223q0 82 45 133q41 41 97 47q11 0 47 8q61 6 81 10
t223 4q366 0 527 -114q133 -105 131 -282q0 -77 -16 -120q-22 -85 -90 -151q-25 -25 -58 -43q84 -33 138 -101q71 -81 71 -217q0 -207 -133 -303q-160 -116 -514 -114q-168 0 -227 4l-160 4q-10 0 -112 8l-50 4v1223z" />
    <glyph glyph-name="C" unicode="C" horiz-adv-x="1374" 
d="M82 694q0 178 59 318q113 270 396 381q139 49 294 49t271 -37q86 -23 164 -79q30 -22 52 -60t21 -81q0 -42 -16 -73q-17 -47 -78 -108q-25 -20 -37 -29q-8 8 -53 49q-129 104 -310 104q-180 0 -292 -116q-113 -121 -113 -315t123 -312q127 -106 318 -105t313 89l154 -265
h4q-29 -20 -66 -38q-98 -61 -254 -86q-252 -44 -485 28q-292 105 -404 369q-61 139 -61 317z" />
    <glyph glyph-name="D" unicode="D" horiz-adv-x="1538" 
d="M143 1223q0 82 45 133q41 41 97 47q91 22 305 22t370 -46t268 -140q228 -192 228 -537t-223 -534q-223 -188 -647 -188q-201 0 -281 6q-79 6 -107 8t-40 4t-15 2v1223zM656 295q203 0 315 98q127 101 127 299t-107 309q-117 117 -323 117q-104 0 -133 -4q-41 0 -50 -4
v-807q16 -4 56 -4q27 -4 115 -4z" />
    <glyph glyph-name="E" unicode="E" horiz-adv-x="1312" 
d="M1194 699q0 -83 -43 -152h-666v-228h725v-319h-1067v1210q0 195 203 195h701q98 0 133 -41q41 -36 41 -100q0 -111 -43 -179h-693v-219h535q90 0 135 -39q39 -45 39 -128z" />
    <glyph glyph-name="F" unicode="F" horiz-adv-x="1214" 
d="M143 1210q0 195 203 195h653q95 0 135 -40q40 -41 40 -103t-16 -110t-28 -67h-645v-237h461q94 0 134 -40t40 -102t-15 -111q-15 -48 -28 -67h-592v-528h-342v1210z" />
    <glyph glyph-name="G" unicode="G" horiz-adv-x="1474" 
d="M563 378q125 -101 338 -102q49 0 78 3l47 4v233h-125q-92 0 -135 37q-39 43 -39 127t43 147h389q203 0 203 -194v-633q-16 -8 -110 -16t-179 -17q-106 -4 -162 -4q-176 0 -338 45q-155 51 -263 142q-228 193 -228 550q0 166 57 310q124 277 412 381q141 51 304 51
t275 -35q52 -14 94 -36t50 -28q86 -53 86 -137q0 -45 -17 -71q-16 -46 -59 -88t-55 -48q-131 131 -361 134q-198 0 -315 -117q-115 -123 -115 -330t125 -308z" />
    <glyph glyph-name="H" unicode="H" horiz-adv-x="1515" 
d="M1030 1253q0 152 178 152q62 0 104 -14t60 -19v-1372h-342v567h-545v-567h-342v1253q0 152 179 152q63 0 112 -16t51 -17v-481h545v362z" />
    <glyph glyph-name="I" unicode="I" horiz-adv-x="628" 
d="M143 1253q0 152 179 152q63 0 112 -16t51 -17v-1372h-342v1253z" />
    <glyph glyph-name="J" unicode="J" horiz-adv-x="1226" 
d="M756 1253q0 152 178 152q61 0 103 -14t61 -19v-883q0 -239 -133 -380q-63 -68 -169 -107t-240 -39t-233 37t-159 82q-68 43 -103 90q-31 37 -45 59l236 203q10 -14 27 -41q66 -74 135 -102q45 -23 114 -23q115 0 171 56t57 186v743z" />
    <glyph glyph-name="K" unicode="K" horiz-adv-x="1433" 
d="M143 1253q0 152 179 152q63 0 112 -16t51 -17v-522q42 42 105 117q59 61 135 143q191 206 290 264q53 30 111 31q58 0 108 -13t115 -66q5 -5 9 -10t6 -7l-135 -135q-18 -20 -103 -106q-84 -85 -122 -126q-47 -45 -110 -113q-63 -67 -73 -79q68 -72 164 -181
q135 -164 150 -180q98 -123 143 -188q55 -68 145 -201h-419q-18 25 -109 142t-145 177q-125 158 -265 293v-612h-342v1253z" />
    <glyph glyph-name="L" unicode="L" horiz-adv-x="1144" 
d="M143 1253q0 152 179 152q63 0 112 -16t51 -17v-1053h650v-319h-992v1253z" />
    <glyph glyph-name="M" unicode="M" horiz-adv-x="1851" 
d="M401 1405q81 1 135 -21t76 -41q66 -131 154 -323q92 -188 166 -330q16 33 46 92t62 125t88 182q56 115 78 164q41 90 97 119q53 33 127 33t135 -21q66 -27 75 -34l78 -1350h-344l-47 840q-49 -102 -63 -131t-88 -183q-62 -138 -72 -160t-51 -114h-254q-25 66 -58 129
q-70 170 -121 267t-96 190l-45 -838h-346l70 1229q4 95 63 139q55 37 135 37z" />
    <glyph glyph-name="N" unicode="N" horiz-adv-x="1513" 
d="M1032 1253q0 152 178 152q61 0 105 -14l55 -19v-1372h-321q-37 60 -82 130q-46 70 -61 94t-54 82l-61 91q-64 106 -183 280q-119 175 -127 187v-864h-338v1227q0 101 60 141q47 37 125 37t118 -21q39 -16 56 -28q10 -10 50 -66t83 -114q69 -98 99 -146t70 -105
q40 -58 52 -77l102 -156q23 -33 74 -112v673z" />
    <glyph glyph-name="O" unicode="O" horiz-adv-x="1683" 
d="M842 283q90 1 165 33q150 65 205 221q31 77 31 167t-31 164q-25 72 -79 132q-53 60 -127 91t-164 31t-164 -32t-128 -90q-54 -59 -79 -132q-31 -74 -31 -164t28 -164q62 -162 212 -225q72 -32 162 -32zM82 702q0 152 57 291q123 272 399 389q140 60 304 60t303 -60
q275 -118 399 -389q58 -139 58 -291t-58 -290q-123 -272 -399 -390q-139 -60 -303 -59q-164 0 -303 59q-276 117 -400 390q-57 138 -57 290z" />
    <glyph glyph-name="P" unicode="P" horiz-adv-x="1368" 
d="M686 442q-156 0 -182 13h-17l-10 2v-457h-334v1223q0 82 45 133q41 41 97 47q11 0 47 8q61 6 81 10t219 4t324 -42q240 -81 306 -269q32 -84 32 -186q-1 -221 -143 -350q-165 -136 -465 -136zM653 733q80 0 146 17q107 35 135 110q10 41 10 76t-10 63q-13 73 -127 115
q-100 29 -275 16q-12 -2 -25 -3t-21 -2t-9 -1v-379l51 -8q45 -4 125 -4z" />
    <glyph glyph-name="Q" unicode="Q" horiz-adv-x="1683" 
d="M1178 455q65 89 65 255q0 84 -31 158q-25 72 -79 132q-53 60 -127 91t-164 31t-164 -32t-128 -90q-54 -59 -79 -132q-31 -74 -31 -166t31 -165q53 -152 209 -226q72 -33 162 -32h39q18 0 39 4l-48 59q-36 49 -58 82t-22 75q1 79 85 124q66 32 149 32zM1124 20
q-107 -49 -276 -50q-168 0 -308 58q-280 117 -401 386q-57 136 -57 288t57 291q123 272 399 389q140 60 304 60t303 -60q275 -118 399 -389q58 -139 58 -290t-58 -287q-63 -137 -158 -226l179 -219l-254 -194z" />
    <glyph glyph-name="R" unicode="R" horiz-adv-x="1413" 
d="M803 770q108 38 130 104q11 34 11 63q0 86 -43 123q-43 38 -100 56t-151 18t-122 -4q-39 0 -51 -4v-360q10 0 19 -2l30 -4q28 -4 118 -4q91 0 159 14zM477 0h-334v1223q0 82 45 133q41 41 97 47q11 0 47 8q61 6 81 10t224 4t321 -41q119 -38 196 -106q142 -126 140 -336
q0 -267 -219 -387q50 -78 144 -252t153 -303h-391q-19 42 -31 68t-69 153l-74 141q-43 76 -66 109q-37 -4 -57 -4h-98q-12 4 -43 4h-41l-25 4v-475z" />
    <glyph glyph-name="S" unicode="S" horiz-adv-x="1396" 
d="M954 412q0 89 -188 120l-209 37q-191 33 -311 115q-146 108 -146 303q0 199 149 327t419 128t430 -72q68 -28 109 -73q63 -69 28 -162q-10 -29 -31 -58q-14 -27 -37 -45q-25 -25 -34 -31q-57 57 -132 83q-165 57 -282 58q-238 2 -264 -89q-6 -25 -6 -45q0 -46 30 -66
q33 -33 152 -55l217 -43q119 -23 201 -58q178 -61 237 -200q29 -74 29 -166q0 -215 -162 -336t-453 -121q-222 0 -440 74q-86 33 -137 57q-55 31 -62 37l142 270q6 -4 55 -32q70 -31 109 -41q51 -18 151 -41q92 -17 180 -17t136 10t84 35q36 23 36 97z" />
    <glyph glyph-name="T" unicode="T" horiz-adv-x="1366" 
d="M512 1085h-328q-94 0 -134 40q-40 41 -40 103t16 110t27 67h1129q98 0 133 -41q41 -36 41 -100q0 -111 -43 -179h-459v-1085h-342v1085z" />
    <glyph glyph-name="U" unicode="U" horiz-adv-x="1556" 
d="M1085 1253q0 152 179 152q63 0 112 -16t51 -17v-749q0 -311 -167 -486q-168 -174 -482 -174t-481 174q-168 174 -168 486v630q0 152 178 152q61 0 103 -14t61 -19v-715q0 -102 16 -161q20 -136 144 -193q61 -25 147 -25t148 25q123 58 143 193q16 59 16 161v596z" />
    <glyph glyph-name="V" unicode="V" horiz-adv-x="1478" 
d="M10 1264q0 141 168 141q70 0 109 -16q41 -10 55 -21q50 -145 170 -452q119 -308 213 -523q136 316 338 858q27 76 71 115t135 39t181 -57l18 -15q-41 -102 -65 -168t-107 -259q-84 -193 -124 -286t-91 -213t-110 -245q-58 -125 -74 -162h-354q-135 258 -289 623
q-49 104 -76 171t-53 128l-35 84t-19 48q-12 32 -37 88q-24 56 -24 122z" />
    <glyph glyph-name="W" unicode="W" horiz-adv-x="2068" 
d="M340 1368q82 -307 135 -473t75 -239q22 -72 71 -214q8 27 27 98t47 173q28 103 44 171t52 193q31 129 46 189t55 99q40 40 114 40q74 -1 126 -19q51 -18 60 -24q18 -92 45 -191q22 -112 102 -418t80 -309q10 33 33 102l35 105q19 74 75 266q56 191 84 303t72 148
q45 37 127 37t148 -29q19 -6 41 -18t24 -15q-163 -585 -469 -1343h-364q-45 120 -115 377q-70 258 -94 366q-152 -572 -217 -743h-363q-8 18 -18 43t-24 57t-18 48q-5 14 -65 174t-75 204t-56 160q-75 211 -105 307q-29 96 -47 148t-18 119t41 106t136 39t153 -37z" />
    <glyph glyph-name="X" unicode="X" horiz-adv-x="1538" 
d="M152 1368q49 37 129 37t129 -33q8 -8 47 -59l78 -96q96 -123 107 -137t110 -138q16 23 46 63l42 56q47 66 78 102q143 214 221 232q41 10 82 10t73 -12q78 -20 142 -80q-4 -6 -26 -32t-33 -40t-117 -147q-51 -70 -146 -185q-29 -39 -160 -209q18 -22 85 -104t141 -175
t131 -159q33 -43 118 -148t89 -114h-416q-36 41 -66 83q-30 41 -52 67t-92 113q-69 87 -142 177q-63 -81 -111 -141q-63 -89 -172 -231q-39 -55 -51 -68h-396q41 55 70 90l123 160q61 82 165 213t167 217q-78 94 -120 143q-41 49 -79 93t-67 79t-38 46t-39 42t-75 101
q-20 47 -21 78q0 66 46 106z" />
    <glyph glyph-name="Y" unicode="Y" horiz-adv-x="1415" 
d="M56 1372q46 34 115 33q69 1 98 -13q30 -14 37 -16t12 -9t62 -94q132 -200 312 -450q77 99 197 288t139 210q16 23 43 41q64 43 141 43q25 0 70 -8q88 -31 123 -66q-2 -6 -51 -91t-112 -177q-64 -92 -88 -129t-98 -141q-74 -105 -98 -139q-26 -34 -56 -76t-44 -60v-518
h-342v518q-45 53 -186 235q-163 213 -188 249q-25 37 -55 76t-53 97t-24 91q0 72 46 106z" />
    <glyph glyph-name="Z" unicode="Z" horiz-adv-x="1318" 
d="M1073 1405q205 0 205 -172q0 -76 -45 -143q-206 -267 -723 -771h760v-319h-1250v293q39 37 115 109t134 129q58 58 260 257t286 297h-584q-98 0 -133 41q-41 36 -41 100q0 111 43 179h973z" />
    <glyph glyph-name="bracketleft" unicode="[" horiz-adv-x="720" 
d="M575 1196h-118v-1145h233v-311h-547v1573q0 195 203 194h332q6 -10 18 -58t13 -97q0 -156 -134 -156z" />
    <glyph glyph-name="backslash" unicode="\" horiz-adv-x="753" 
d="M20 1452q65 57 168 57t140 -129l426 -1380h-314l-440 1430q2 4 9 10t11 12z" />
    <glyph glyph-name="bracketright" unicode="]" horiz-adv-x="720" 
d="M31 -260v311h233v1145h-119q-133 0 -133 156q0 49 12 97t19 58h332q203 0 203 -194v-1573h-547z" />
    <glyph glyph-name="asciicircum" unicode="^" horiz-adv-x="1069" 
d="M534 1407q64 0 97 -23q31 -16 51 -36l346 -670h-319l-179 358l-180 -358h-309l303 584q43 84 85 114q41 30 105 31z" />
    <glyph glyph-name="underscore" unicode="_" horiz-adv-x="1024" 
d="M0 -143h1024v-121h-1024v121z" />
    <glyph glyph-name="grave" unicode="`" horiz-adv-x="1024" 
d="M250 1352q0 27 24 70q49 89 125 87q37 0 68 -18q25 -10 70 -39l235 -149l-90 -136z" />
    <glyph glyph-name="a" unicode="a" horiz-adv-x="1191" 
d="M486 216q36 -10 124 -11q88 0 140 10v219q-2 0 -54 8l-108 2q-109 0 -162 -38q-37 -33 -37 -86q0 -54 30 -74q31 -20 67 -30zM496 811q-191 0 -277 -61l-16 16q-28 28 -42 65q-15 38 -16 64q0 178 365 178q106 0 223 -20q213 -49 303 -213q43 -86 43 -215v-619
q-23 -6 -46 -8t-148 -14t-290 -13q-165 0 -259 29q-197 47 -250 184q-25 61 -25 131q0 187 120 269t384 82q102 0 183 -9q0 154 -252 154z" />
    <glyph glyph-name="b" unicode="b" horiz-adv-x="1294" 
d="M650 274q101 0 169 68q66 70 66 180t-66 180t-166 70t-174 -72q-65 -81 -65 -188q0 -106 68 -172t168 -66zM717 1073q109 0 196 -41q178 -71 271 -282q39 -111 39 -232t-44 -224t-122 -175t-176 -107q-97 -41 -233 -41q-136 -1 -258 53q-213 93 -275 318q-27 92 -27 227
v795q0 147 172 145q56 0 84 -9t40 -12t20 -6q7 -3 12 -3v-518q118 112 301 112z" />
    <glyph glyph-name="c" unicode="c" horiz-adv-x="1060" 
d="M72 522q0 252 164 401q164 150 415 150q113 0 205 -27q137 -40 176 -124q14 -23 14 -59q1 -87 -79 -154q-23 -18 -35 -27q-38 37 -102 69q-64 31 -136 31q-135 -1 -207 -65q-33 -33 -57 -82q-20 -55 -20 -115t20 -114q27 -49 57 -78q70 -58 191 -60q119 0 209 56
q18 8 26 16l144 -250q-1 0 -45 -26q-89 -52 -222 -78q-191 -38 -364 20q-216 71 -308 278q-46 103 -46 238z" />
    <glyph glyph-name="d" unicode="d" horiz-adv-x="1294" 
d="M644 274q101 0 171 66q66 66 66 172t-66 188q-76 72 -175 72t-165 -71q-65 -71 -65 -181t65 -178q68 -68 169 -68zM879 1364q0 147 172 145q57 0 85 -9t40 -12t19 -6t11 -3v-910q0 -254 -102 -389q-78 -102 -200 -155t-258 -53t-232 40q-212 76 -299 285q-43 100 -43 221
t39 232q92 213 270 282q88 41 200 41q111 0 187 -39t111 -73v403z" />
    <glyph glyph-name="e" unicode="e" horiz-adv-x="1148" 
d="M784 723q0 33 -39 65t-106 31q-109 0 -176 -69q-49 -61 -57 -152q127 0 238 13t131 59q9 20 9 53zM236 926q78 72 174 106q96 41 212 41t206 -30q173 -57 241 -197q33 -63 33 -138q0 -162 -123 -237q-144 -86 -485 -86h-72q2 -20 20 -49q79 -88 250 -88q61 0 128 14
t101 29q34 16 37 20l115 -229q-180 -108 -452 -111q-226 0 -392 144q-159 159 -159 408t166 403z" />
    <glyph glyph-name="f" unicode="f" horiz-adv-x="870" 
d="M680 1044q170 0 170 -136q0 -100 -41 -171h-356v-737h-330v1077q0 115 33 195q31 86 88 133q110 106 326 104q216 -1 300 -96q23 -33 23 -79t-29 -81q-23 -41 -59 -57q-62 57 -184 57q-76 0 -122 -40t-46 -123v-46h227z" />
    <glyph glyph-name="g" unicode="g" horiz-adv-x="1294" 
d="M410 530q0 -115 64 -173t168 -58q104 1 169 65q66 64 66 167t-67 170t-167 67q-152 0 -217 -145q-16 -46 -16 -93zM585 -168q205 0 269 148q23 57 23 131v22q-37 -37 -84 -59q-198 -92 -420 -21q-194 76 -264 262q-37 92 -37 214q0 243 161 393q82 76 181 110
q102 41 236 41t256 -53q212 -92 274 -309q27 -86 26 -224v-305q0 -308 -170 -465q-155 -147 -428 -147q-88 0 -142 8t-159 29q-87 29 -109 36t-36 19l90 236q20 -10 33 -15l67 -22q68 -14 99 -21q78 -8 134 -8z" />
    <glyph glyph-name="h" unicode="h" horiz-adv-x="1263" 
d="M637 768q-193 0 -195 -227v-541h-329v1364q0 147 172 145q57 0 85 -9t40 -12t19 -6t11 -3v-496q108 94 281 92q188 0 307 -104q123 -123 123 -334v-637h-330v569q0 106 -47 152q-43 47 -137 47z" />
    <glyph glyph-name="i" unicode="i" horiz-adv-x="575" 
d="M288 1143q-80 0 -132 52t-52 129t52 132q57 53 133 53t129 -53t53 -132t-53 -128q-51 -53 -130 -53zM123 899q0 147 172 145q53 0 101 -14t57 -16v-1014h-330v899z" />
    <glyph glyph-name="j" unicode="j" horiz-adv-x="575" 
d="M288 1143q-80 0 -132 52t-52 129t52 132q57 53 133 53t129 -53t53 -132t-53 -128q-51 -53 -130 -53zM123 -10v909q0 147 172 145q53 0 101 -14t57 -16v-998q0 -236 -129 -352q-51 -45 -136 -74q-88 -20 -159 -20t-185 24q-94 31 -108 39l82 244q59 -33 136 -34
q78 -1 124 30q45 31 45 117z" />
    <glyph glyph-name="k" unicode="k" horiz-adv-x="1230" 
d="M113 1364q0 147 172 145q61 0 108 -15t49 -15v-783q70 58 86 70t59 49q44 37 91 76t73 63q44 40 89 66q58 24 123 24t139 -40q25 -16 45 -37q18 -23 27 -35q-23 -23 -97 -92q-138 -117 -225 -185q-88 -69 -113 -90q275 -249 492 -565h-408q-101 136 -190 223l-191 191
v-414h-329v1364z" />
    <glyph glyph-name="l" unicode="l" horiz-adv-x="575" 
d="M123 1364q0 147 172 145q61 0 108 -15t50 -15v-1479h-330v1364z" />
    <glyph glyph-name="m" unicode="m" horiz-adv-x="1902" 
d="M608 770q-166 0 -166 -195v-575h-329v670q0 191 133 301q125 104 334 102q249 0 374 -155q120 155 371 155q209 0 330 -102q66 -53 98 -127q37 -74 37 -174v-670h-330v575q0 195 -164 195q-80 0 -130 -52t-50 -171v-547h-330v547q0 119 -49 171t-129 52z" />
    <glyph glyph-name="n" unicode="n" horiz-adv-x="1236" 
d="M795 557q0 213 -192 213t-191 -213v-557h-330v633q0 102 41 186q83 169 278 225q99 29 201 29t202 -29q100 -28 168 -82t110 -140t42 -189v-633h-329v557z" />
    <glyph glyph-name="o" unicode="o" horiz-adv-x="1298" 
d="M648 266q107 0 173 74q31 27 49 78t19 104q-1 52 -19 104t-49 79q-65 73 -173 73q-106 0 -171 -73q-31 -27 -49 -78t-18 -105t18 -104q18 -51 49 -78q31 -35 76 -53q41 -21 95 -21zM648 1073q240 0 410 -158q169 -158 169 -393q0 -236 -170 -393q-79 -74 -185 -116
t-224 -42t-224 42t-184 116q-168 159 -168 394t170 392q76 74 182 116t224 42z" />
    <glyph glyph-name="p" unicode="p" horiz-adv-x="1294" 
d="M885 524q0 110 -66 178q-68 68 -169 68t-171 -65q-65 -66 -65 -173t65 -188q76 -72 175 -72t165 71t66 181zM88 -410v885q0 252 102 389q78 102 200 156t258 53q136 0 233 -41q210 -75 299 -284q43 -100 43 -222t-39 -229q-45 -106 -112 -175q-143 -147 -355 -147
q-115 0 -189 35t-112 74v-494h-328z" />
    <glyph glyph-name="q" unicode="q" horiz-adv-x="1294" 
d="M640 272q99 0 175 72q64 80 65 187q1 108 -65 174q-70 65 -171 65t-169 -68q-65 -70 -65 -180t66 -180t164 -70zM582 -25q-219 0 -361 150q-66 66 -110 172q-39 106 -39 228q0 121 44 225q89 210 298 282q96 41 232 41t258 -53q305 -133 302 -545v-885h-327v494
q-39 -39 -113 -74t-184 -35z" />
    <glyph glyph-name="r" unicode="r" horiz-adv-x="897" 
d="M635 778q-86 0 -139 -46t-54 -148v-584h-329v655q0 106 34 179q31 76 93 131q63 55 143 79q77 29 193 29q116 1 184 -27t98 -57q39 -49 39 -82q0 -34 -8 -71q-26 -61 -68 -103q-100 45 -186 45z" />
    <glyph glyph-name="s" unicode="s" horiz-adv-x="1155" 
d="M576 219q70 0 122 14q43 19 43 59t-36 52q-31 16 -111 27l-107 12q-196 24 -282 88q-123 81 -123 246q0 82 29 139q23 62 86 114t151 74q86 29 213 29q257 0 389 -67q122 -68 74 -183q-31 -52 -66 -71q-11 -11 -16 -11l-2 -2q-22 22 -109 56q-131 38 -256 39
q-165 0 -163 -78q0 -35 34 -49t97 -25l186 -27q57 -8 135 -28q143 -50 193 -152q31 -59 30 -139q0 -174 -132 -269t-338 -95t-398 53q-114 43 -168 81l117 213q57 -49 262 -90q76 -10 146 -10z" />
    <glyph glyph-name="t" unicode="t" horiz-adv-x="909" 
d="M598 270q90 0 172 47l129 -225q-77 -67 -243 -105q-66 -15 -134 -16q-197 0 -301 103q-109 98 -108 270v862q0 146 172 146q55 0 102 -14t55 -17v-277h236q92 0 131 -36t39 -115q0 -78 -41 -156h-365v-321q0 -78 50 -119q27 -16 49 -23q41 -4 57 -4z" />
    <glyph glyph-name="u" unicode="u" horiz-adv-x="1269" 
d="M113 899q0 147 172 145q55 0 102 -14t55 -16v-527q0 -213 193 -213t192 213v412q0 147 172 145q53 0 101 -14t57 -16v-588q0 -111 -39 -201q-86 -168 -277 -225q-97 -29 -206 -29q-232 0 -373 115q-66 51 -110 139q-39 90 -39 201v473z" />
    <glyph glyph-name="v" unicode="v" horiz-adv-x="1208" 
d="M872 1004q36 40 113 40t127 -20q49 -20 55 -24q7 -5 11 -7t6 -4l4 -2q-10 -43 -30 -89t-81 -193q-55 -121 -83 -183t-64 -137q-38 -76 -56 -116q-18 -39 -52 -107t-57 -109q-22 -41 -28 -53h-305q-66 115 -125 231q-102 211 -132 271t-79 176t-62 152q-14 34 -14 85
t41 89q39 40 114 40t118 -14t45 -16q72 -207 213 -547l41 -92q14 35 34 80t62 155l66 156q12 31 37 98t45 94q12 27 36 46z" />
    <glyph glyph-name="w" unicode="w" horiz-adv-x="1714" 
d="M61 1001q37 43 125 43t148 -30q12 -38 36 -128t42 -149t38 -127t36 -118q15 -50 30 -95q47 140 74 256q10 31 24 85t26 89t26 90q16 55 51 91q31 36 105 36t114 -16q41 -10 55 -20q9 -30 27 -92t24 -88q41 -168 93 -320q18 -68 30 -111q23 64 40 122q17 59 38 126t55 189
t76 166t120 44q77 0 144 -26l37 -19q5 -5 17 -10l2 -2q-40 -162 -264 -729q-43 -106 -113 -258h-316q-32 86 -75 254l-49 160q-14 51 -41 137q-27 -86 -42 -140t-49 -161q-18 -70 -42 -145t-31 -105h-318q-62 135 -117 273q-55 139 -85 213t-50 132l-36 99q-4 12 -29 78
q-42 140 24 206z" />
    <glyph glyph-name="x" unicode="x" horiz-adv-x="1306" 
d="M92 917q0 48 39 91q43 36 113 36t114 -14l56 -18q2 -2 28 -37q30 -31 52 -61t49 -61q27 -33 51 -61t49 -59q33 50 78 103q45 52 62 74t21 25q5 4 31 38q57 71 157 71t157 -36q11 -4 29 -16t20 -13q20 -18 27 -27q-19 -25 -41 -49q-23 -25 -104 -121t-109 -133
q-41 -47 -119 -141l434 -508h-416q-2 4 -7 9t-20 24t-59 65q-51 61 -67 82q-27 29 -80 90q-29 -35 -73 -90t-88 -107t-58 -73h-398l50 61q19 19 84 99t133 159q66 82 135 166q-102 111 -188 201t-119 150q-23 33 -23 81z" />
    <glyph glyph-name="y" unicode="y" horiz-adv-x="1269" 
d="M560 -168q136 0 206 68t70 223q-43 -51 -119 -74q-74 -29 -163 -29q-202 0 -312 97q-66 51 -95 125q-35 70 -34 176v481q0 147 172 145q55 0 102 -14t55 -16v-529q0 -96 45 -141q49 -43 143 -43q198 0 197 217v381q0 147 172 145q53 0 101 -14t57 -16v-869
q0 -300 -158 -444q-151 -131 -387 -131q-167 0 -325 33q-115 30 -133 43l79 241q90 -30 105 -30q85 -25 222 -25z" />
    <glyph glyph-name="z" unicode="z" horiz-adv-x="1124" 
d="M209 743q-170 1 -170 131q0 103 41 170h811q76 0 117 -40q47 -36 47 -104t-23 -105q-18 -41 -71 -88q-2 -2 -48 -43q-39 -39 -82 -74q-58 -58 -201 -183q-143 -124 -151 -128h580v-279h-1020v256q74 63 156 137t142 124t156 137t99 89h-383z" />
    <glyph glyph-name="braceleft" unicode="{" horiz-adv-x="784" 
d="M764 1352q0 -156 -127 -156q-59 0 -73 -26t-15 -64v-211q0 -196 -123 -272q53 -25 79 -78q44 -87 44 -193v-211q0 -42 12 -63q27 -27 80 -27h100v-311h-182q-158 0 -244 88q-90 84 -90 248v223q0 164 -141 164h-53v321h53q141 0 141 164v223q0 162 88 249t246 87h174
q7 -10 19 -58t12 -97z" />
    <glyph glyph-name="bar" unicode="|" horiz-adv-x="581" 
d="M143 1380q0 72 41 101q73 47 205 18l49 -16v-1753h-295v1650z" />
    <glyph glyph-name="braceright" unicode="}" horiz-adv-x="784" 
d="M559 948q0 -164 141 -164h54v-321h-54q-141 0 -141 -164v-223q0 -160 -89 -248t-245 -88h-182v311h100q71 0 78 27q13 13 15 63v211q0 113 38 183q6 16 37 55q37 27 47 33q-124 73 -122 272v211q0 39 -15 61q-14 29 -74 29q-127 0 -127 156q0 49 12 97t19 58h174
q154 0 246 -86q88 -92 88 -250v-223z" />
    <glyph glyph-name="asciitilde" unicode="~" horiz-adv-x="1290" 
d="M420 606q-77 0 -80 -104h-256q0 395 330 395q80 0 168 -27t124 -37t80 -23t81 -13q36 -1 58 21t23 83h256q0 -395 -330 -395q-76 0 -131 16t-109 32t-89 26q-83 26 -125 26z" />
  </font>
</defs>
</svg>
