<?xml version="1.0" standalone="no"?>
<!DOCTYPE svg PUBLIC "-//W3C//DTD SVG 1.1//EN" "http://www.w3.org/Graphics/SVG/1.1/DTD/svg11.dtd" >
<svg xmlns="http://www.w3.org/2000/svg">
<metadata>
Created by FontPrep 20130207 at Mon Jul 28 15:00:46 2014
 By Zendy Wongso
Copyright 2006-2009 Dalton Maag Ltd. All rights reserved. This font may not be altered in any way without prior permission of Dalton Maag Ltd. 
</metadata>
<defs>
<font id="78740fc039d6030dda435ca3ca4735b2" horiz-adv-x='1024' >
  <font-face 
    font-family="CoHeadline-Regular"
    font-weight="400"
    font-stretch="normal"
    units-per-em="2048"
    panose-1="2 0 5 3 0 0 0 0 0 0"
    ascent="1638"
    descent="-410"
    x-height="1028"
    cap-height="1405"
    bbox="-266 -430 2040 1634"
    underline-thickness="102"
    underline-position="-102"
    unicode-range="U+000D-007E"
  />
<missing-glyph horiz-adv-x="1024" 
 />
    <glyph glyph-name=".notdef" horiz-adv-x="1024" 
 />
    <glyph glyph-name=".null" horiz-adv-x="0" 
 />
    <glyph glyph-name="uni000D" unicode="&#xd;" horiz-adv-x="514" 
 />
    <glyph glyph-name="uni001D" horiz-adv-x="0" 
 />
    <glyph glyph-name="space" unicode=" " horiz-adv-x="514" 
 />
    <glyph glyph-name="exclam" unicode="!" horiz-adv-x="489" 
d="M88 122q0 60 46 106t110 46t112 -45q45 -49 45 -107t-45 -110q-51 -45 -111 -45t-110 45q-47 50 -47 110zM127 1296q0 53 33 82q35 27 97 27t95 -22q6 -3 8 -3v-929h-233v845z" />
    <glyph glyph-name="quotedbl" unicode="&#x22;" horiz-adv-x="1054" 
d="M874 938h-233v463q0 51 33 82q36 27 92 27t108 -27v-545zM416 938h-236v463q0 49 33 82q82 54 203 0v-545z" />
    <glyph glyph-name="numbersign" unicode="#" horiz-adv-x="1558" 
d="M930 528l63 375h-364l-64 -375h365zM193 330q-117 0 -115 100q0 27 10 59t18 39h261l63 375h-139q-115 0 -115 98q0 29 10 61t19 40h260l41 239q19 101 123 101q33 0 52 -7l38 -14l-55 -319h364l41 239q19 101 121 101q35 0 54 -7l38 -14l-55 -319h141q57 0 86 -25
q25 -27 25 -75t-25 -99h-260l-66 -375h142q57 0 86 -24q24 -30 24 -78t-24 -96h-260l-58 -330h-198l55 330h-365l-55 -330h-199l56 330h-139z" />
    <glyph glyph-name="dollar" unicode="$" horiz-adv-x="1320" 
d="M715 197q129 16 190 61q59 47 59 133t-63 127q-74 43 -186 64v-385zM324 1026q0 -76 58 -119t191 -71v381q-131 -7 -190 -61t-59 -130zM647 1634q47 0 68 -14v-203q139 -10 236 -42q97 -31 129 -53t49 -48t17 -66q0 -41 -25 -80q-26 -39 -54 -55q-75 75 -223 119
q-70 16 -129 22v-405l73 -14q206 -39 314 -129t112 -258q0 -178 -124 -286t-375 -130v-217h-142v217q-102 6 -188 24q-211 54 -326 134l103 182q2 0 51 -33q12 -6 86 -39q132 -50 274 -61v407l-65 15q-66 12 -149 43q-271 101 -271 346q0 74 27 149q31 70 86 123
q142 122 372 137v152q0 63 74 63z" />
    <glyph glyph-name="percent" unicode="%" horiz-adv-x="1992" 
d="M472 895q44 0 82 16q85 36 114 117q16 39 16 84q0 93 -61 154q-63 63 -152 63q-45 0 -83 -16q-85 -36 -114 -117q-16 -39 -16 -84t16 -84q29 -82 115 -117q39 -16 83 -16zM59 1112q0 84 31 158q37 78 90 125q120 116 292 115t290 -115q53 -47 90 -125q31 -74 31 -158
t-31 -158q-37 -78 -90 -125q-120 -116 -292 -115t-290 115q-53 47 -90 125q-31 74 -31 158zM1735 369q-1 41 -17 83q-31 78 -112 117q-87 32 -168 0q-81 -37 -113 -114q-16 -45 -16 -86t16 -83q30 -80 113 -118q43 -16 84 -16t82 17q81 34 114 114q17 45 17 86zM1278 1430
q14 29 41 57q27 23 76 23t80 -16q31 -15 41 -26l-836 -1468h-219zM1522 766q163 0 293 -115q55 -51 86 -127q33 -68 33 -156t-33 -155q-60 -146 -218 -211q-77 -31 -161 -31q-165 0 -293 115q-55 51 -86 127q-33 68 -33 156t33 155q59 146 217 211q78 31 162 31z" />
    <glyph glyph-name="ampersand" unicode="&#x26;" horiz-adv-x="1478" 
d="M129 379q0 253 246 342q-105 45 -159 130t-54 189q0 184 137 295q141 106 377 107q156 0 242 -27t110 -41q66 -41 66 -90t-25 -80q-18 -31 -43 -47q-33 31 -121 61t-211 29q-297 0 -297 -217q0 -109 82 -158q84 -45 234 -45h612q121 0 121 -106q0 -59 -27 -107h-127v-618
q-29 -8 -166 -20q-136 -12 -328 -11q-192 0 -318 29q-351 81 -351 385zM761 168q204 0 296 16v430h-406q-137 0 -208 -58t-71 -167t95 -164q90 -57 294 -57z" />
    <glyph glyph-name="quotesingle" unicode="'" 
d="M190 1401q0 51 33 82q60 44 158 16q31 -8 43 -16v-545h-234v463z" />
    <glyph glyph-name="parenleft" unicode="(" horiz-adv-x="700" 
d="M336 620q0 -549 328 -673v-217q-123 25 -232 94q-104 74 -178 184q-156 248 -156 613q0 197 41 342q76 311 291 450q100 72 234 96v-217q-328 -123 -328 -672z" />
    <glyph glyph-name="parenright" unicode=")" horiz-adv-x="700" 
d="M365 618q0 550 -328 674v217q390 -78 524 -546q39 -162 39 -343t-39 -341q-45 -162 -115 -267q-145 -231 -409 -282v217q328 121 328 671z" />
    <glyph glyph-name="asterisk" unicode="*" horiz-adv-x="1099" 
d="M557 1509q37 0 52 -6t48 -16l-14 -338l225 92q39 16 78 16t65 -44t25 -105v-18q-2 -4 -2 -11l-327 -96l227 -287l-172 -116l-211 309l-211 -309l-170 116l223 287l-325 96q0 68 14 105q6 30 29 52q41 40 122 5l224 -94l-15 268q0 94 115 94z" />
    <glyph glyph-name="plus" unicode="+" horiz-adv-x="1296" 
d="M1075 805q109 0 109 -115q0 -29 -8 -65q-6 -12 -15 -39h-397v-418h-229v418h-314q-110 0 -108 116q0 42 6 56t16 47h400v323q0 109 120 109q27 0 68 -8l41 -17v-407h311z" />
    <glyph glyph-name="comma" unicode="," 
d="M182 180q31 107 116 107q66 0 106 -24t51 -40l-236 -549l-170 66z" />
    <glyph glyph-name="hyphen" unicode="-" horiz-adv-x="673" 
d="M174 446q-108 0 -106 119q0 39 5 55t7 22q2 7 4 11q2 3 3 9t3 10h410q110 0 108 -119q0 -58 -22 -107h-412z" />
    <glyph glyph-name="period" unicode="." 
d="M150 114q0 121 96 160q96 37 176 -32q45 -50 45 -98q0 -114 -93 -161q-30 -15 -82 -15t-95 48q-47 48 -47 98z" />
    <glyph glyph-name="slash" unicode="/" horiz-adv-x="708" 
d="M471 1413q17 45 39 71t74 26t84 -19q35 -25 41 -33l-486 -1476h-223z" />
    <glyph glyph-name="zero" unicode="0" horiz-adv-x="1368" 
d="M685 180q85 0 150 39t103 106t66 167q20 106 20 210t-20 211q-27 102 -66 167q-87 145 -254 145q-86 0 -153 -41q-131 -80 -166 -271q-23 -88 -23 -211t23 -210q35 -191 167 -275q68 -37 153 -37zM94 702q0 178 41 310q35 131 115 233q163 197 432 197q268 0 434 -197
q74 -94 117 -233q39 -146 39 -310t-39 -309q-43 -139 -117 -233q-162 -195 -434 -195q-271 0 -432 195q-80 102 -115 233q-41 131 -41 309z" />
    <glyph glyph-name="one" unicode="1" horiz-adv-x="960" 
d="M33 1018q0 43 22 76q23 33 74 65l246 170q49 35 90 55t112 20t125 -36v-1368h-237v1128l-326 -235q-106 53 -106 125z" />
    <glyph glyph-name="two" unicode="2" horiz-adv-x="1144" 
d="M78 1280q4 6 38 39t82 57t124 45t190 21t219 -33q106 -39 166 -94q68 -57 98 -137q35 -76 35 -158q0 -204 -121 -356q-10 -12 -52 -64q-74 -91 -310 -275q-47 -36 -61 -48t-45 -34q-30 -22 -35 -26h634v-217h-1007v207q135 91 229 162q321 216 455 409q63 94 63 204
t-73 180q-73 71 -213 72q-141 1 -240 -75q-41 -35 -57 -61t-31 -54q-32 4 -79 39q-48 35 -48 89q0 55 39 108z" />
    <glyph glyph-name="three" unicode="3" horiz-adv-x="1206" 
d="M1061 1062q0 -219 -232 -337q137 -47 197 -138t59 -191q0 -100 -36 -179q-41 -78 -107 -135q-153 -117 -365 -117t-370 55q-61 16 -115 46q-43 20 -69 38l102 181q180 -109 401 -109q150 0 232 57q80 61 80 166q0 209 -320 209h-129q-29 49 -31 113q0 106 129 106h41
q143 0 215 58q74 55 74 147t-72 152q-72 55 -217 55t-241 -70q-41 -29 -65 -59t-29 -45q-49 8 -91 43q-37 35 -36 82q0 18 8 55q14 33 32 51q147 143 435 146q249 0 397 -119q63 -51 93 -122t30 -139z" />
    <glyph glyph-name="four" unicode="4" horiz-adv-x="1275" 
d="M797 309h-394q-160 0 -243 53q-86 51 -86 175q0 91 42 195t101 188q55 84 141 176t181 161q94 72 178 107q84 41 162 41t108 -16l45 -19v-846h68q121 0 121 -104q-1 -39 -13 -71t-18 -40h-158v-309h-235v309zM797 524v647q-80 -41 -163 -111q-177 -148 -269 -308
q-47 -84 -47 -142t36 -73q37 -12 97 -13h346z" />
    <glyph glyph-name="five" unicode="5" horiz-adv-x="1167" 
d="M121 264q164 -90 399 -90q152 0 231 71t78 173q0 248 -372 252q-138 0 -232 -20t-106 -25l20 641q4 139 150 139h604q121 0 121 -105q0 -48 -31 -110h-629l-10 -334l90 8q56 6 162 6t204 -38q278 -107 275 -404q0 -203 -145 -334q-74 -63 -176 -94q-98 -35 -250 -35
t-320 47q-109 40 -155 70z" />
    <glyph glyph-name="six" unicode="6" horiz-adv-x="1259" 
d="M629 168q139 0 227 84q84 84 84 217t-88 221q-41 41 -98 60q-112 49 -250 0q-53 -20 -98 -62q-89 -93 -89 -225t89 -209q40 -42 100 -64t123 -22zM702 946q114 0 202 -39q172 -76 243 -248q33 -81 33 -185t-42 -200t-116 -163q-150 -146 -391 -146t-389 141
q-156 139 -156 359q0 139 61 268q63 129 166 262l289 377q48 68 122 69q103 1 159 -59l-361 -477q66 41 180 41z" />
    <glyph glyph-name="seven" unicode="7" horiz-adv-x="1073" 
d="M131 1182q-123 0 -123 108q0 37 12 72q8 35 19 43h866q74 0 110 -33t36 -82q1 -49 -11 -87t-71 -177t-104 -242q-45 -104 -105 -234t-92 -210q-41 -88 -93 -204t-61 -136h-248l21 45q18 43 56 125t71 160l223 497q18 41 50 113t44 102t33 77q20 46 27 63h-660z" />
    <glyph glyph-name="eight" unicode="8" horiz-adv-x="1382" 
d="M693 166q159 0 243 60t84 164t-84 164q-84 62 -244 62t-245 -61t-85 -165t84 -165q88 -59 247 -59zM692 809q154 0 226 63q76 60 76 156t-74 160t-228 63q-154 0 -229 -63q-74 -66 -74 -160q1 -94 75 -156t228 -63zM119 356q0 255 241 359q-116 59 -162 147t-46 177
t36 163q84 152 279 211q104 29 225 29q120 0 220 -29q201 -59 280 -211q39 -72 39 -162t-46 -178t-163 -147q72 -29 113 -68q88 -66 116 -172q35 -144 -26 -266q-41 -78 -111 -131q-164 -113 -421 -113t-423 113q-70 53 -112 131q-39 77 -39 147z" />
    <glyph glyph-name="nine" unicode="9" horiz-adv-x="1263" 
d="M311 931q0 -69 25 -124q20 -53 63 -95t101 -61q53 -23 125 -23q215 1 297 183q46 115 0 246q-54 119 -172 163t-254 -3q-57 -23 -99 -64q-86 -86 -86 -222zM625 1442q237 0 395 -139q76 -72 110 -160q41 -88 41 -218q-1 -130 -65 -257t-148 -238l-337 -446h-275l385 510
q-70 -39 -174 -39q-211 0 -354 139q-131 142 -129 330q0 114 39 206q81 193 293 275q98 37 219 37z" />
    <glyph glyph-name="colon" unicode=":" 
d="M150 114q0 121 96 160q96 37 176 -32q45 -50 45 -98q0 -114 -93 -161q-30 -15 -82 -15t-95 48q-47 48 -47 98zM150 854q0 118 96 162q32 12 78 12t98 -45q45 -51 45 -99q0 -112 -93 -160q-30 -16 -65 -15q-68 0 -112 49q-47 46 -47 96z" />
    <glyph glyph-name="semicolon" unicode=";" 
d="M150 854q0 118 96 162q32 12 78 12t98 -45q45 -51 45 -99q0 -112 -93 -160q-30 -16 -65 -15q-68 0 -112 49q-47 46 -47 96zM312 287q58 0 98 -28t45 -36l-236 -549l-170 66l133 440q14 49 43 78t87 29z" />
    <glyph glyph-name="less" unicode="&#x3c;" horiz-adv-x="1300" 
d="M1149 1214v-241l-713 -271l713 -270v-239l-901 368q-53 20 -80 60q-40 83 -4 153q14 33 35 49z" />
    <glyph glyph-name="equal" unicode="=" horiz-adv-x="1296" 
d="M221 334q-110 0 -108 117q0 41 10 65l12 37h940q109 0 109 -115q0 -29 -8 -65q-6 -12 -15 -39h-940zM221 844q-110 0 -108 114q0 44 6 58t16 47h940q109 0 109 -115q0 -29 -8 -65q-6 -12 -15 -39h-940z" />
    <glyph glyph-name="greater" unicode="&#x3e;" horiz-adv-x="1300" 
d="M1151 700q0 -45 -16 -69q-12 -29 -35 -49l-950 -389v241l714 268l-714 271v241l901 -370q100 -42 100 -144z" />
    <glyph glyph-name="question" unicode="?" horiz-adv-x="1105" 
d="M324 120q0 58 45 109q51 45 113 45t108 -46t47 -108q0 -62 -45 -106q-46 -44 -110 -45q-64 0 -113 43q-45 50 -45 108zM51 1194q0 37 27 84q33 47 86 82q146 82 346 82q129 0 231 -33q196 -76 246 -217q29 -66 29 -144t-21 -145q-27 -69 -59 -111q-55 -74 -162 -140
q-108 -67 -139 -109q-37 -42 -37 -119h-233q0 70 7 115q13 86 81 149q35 31 86 62q111 61 178 127q57 61 57 149t-64 152t-214 65q-187 0 -287 -121q-25 -27 -41 -57q-117 33 -117 129z" />
    <glyph glyph-name="at" unicode="@" horiz-adv-x="2041" 
d="M1147 188q53 0 70 5v276q-2 0 -52 8t-157 8t-160 -36q-51 -37 -51 -114t63 -114q66 -33 203 -33h84zM1031 1245q-314 0 -517 -210t-205 -529q0 -162 56 -293q51 -131 155 -229q213 -201 549 -201q139 0 239 21t140 38l74 -182q-29 -17 -131 -39q-101 -22 -166 -27
q-66 -10 -178 -10q-213 0 -392 68q-176 72 -303 192q-124 123 -194 292t-70 371t68 374q72 170 192 295q123 123 299 196q180 70 391 70t389 -70q346 -149 463 -487q59 -172 60 -363q0 -49 -8 -147q-30 -177 -48 -234t-34 -96q-20 -2 -222 -12t-416 -10q-215 0 -319 12
t-166 47q-147 63 -147 248q0 305 426 305q91 0 205 -19q0 113 -66 163q-65 50 -207 50t-237 -57q-45 45 -45 98q0 134 309 134q221 0 334 -95q115 -92 114 -274v-442l129 6q54 0 73 2t39 3t30 3q84 346 -15 609t-360 372q-129 57 -288 57z" />
    <glyph glyph-name="A" unicode="A" horiz-adv-x="1501" 
d="M999 582q-42 122 -139 344q-77 199 -117 268q-8 -16 -27 -60t-44 -98q-24 -54 -42 -95q-18 -42 -44 -102q-26 -61 -56 -133q-28 -72 -49 -124h518zM747 1442q67 0 105 -21q4 -2 9 -4t8 -4t15 -7t15 -9q41 -72 78 -154t121 -268q56 -141 106 -256t102 -246t84 -212
q34 -81 59 -151t42 -110h-270q-2 6 -11 24t-16 47q-8 28 -25 71q-18 44 -31 80q-14 36 -22 54t-35 91h-686q-43 -104 -89 -229t-50 -138h-246q76 199 151 383q75 183 95 233t70 166t82 195q33 80 143 319q35 80 82 113t114 33z" />
    <glyph glyph-name="B" unicode="B" horiz-adv-x="1415" 
d="M1073 398q0 106 -57 151q-65 61 -215 61h-414v-405q122 -16 265 -16q237 -1 335 53q49 31 66 69q20 35 20 87zM387 821h381q63 0 121 15q53 20 80 41q57 53 57 143q0 89 -76 141q-33 23 -108 43q-78 14 -223 14t-232 -16v-381zM150 1272q0 66 32 96q35 29 100 43t313 14
q247 -1 367 -33t189 -85q121 -98 121 -267q0 -74 -19 -122q-38 -129 -163 -191q106 -35 167 -121q66 -80 66 -190t-27 -186q-58 -160 -301 -218q-129 -32 -296 -32t-226 4l-156 4q-29 2 -112 8l-55 4v1272z" />
    <glyph glyph-name="C" unicode="C" horiz-adv-x="1359" 
d="M1329 94q-173 -131 -513 -131q-130 0 -264 47q-134 48 -240 142t-164 232q-60 138 -60 316t59 312q57 143 160 233q91 93 231 145t290 52q264 0 393 -86q51 -33 77 -74q20 -41 21 -70t-37 -86q-34 -40 -61 -55q-65 65 -124 90q-59 26 -128 47q-181 35 -328 -20
q-175 -73 -260 -270q-37 -98 -37 -224q0 -234 150 -379q152 -129 366 -129q131 0 222 33t137 62l108 -187h2z" />
    <glyph glyph-name="D" unicode="D" horiz-adv-x="1527" 
d="M150 1272q0 106 92 129q77 24 317 24q239 0 393 -50t265 -142q219 -203 220 -532q1 -330 -216 -527q-107 -92 -267 -143t-355 -51t-279 6t-114 8q-28 2 -41 4t-15 2v1272zM604 1210q-158 0 -211 -12v-985q54 -14 215 -14q281 0 426 133q147 129 148 373q0 115 -35 204
q-64 185 -280 263q-105 38 -263 38z" />
    <glyph glyph-name="E" unicode="E" horiz-adv-x="1306" 
d="M1208 1294q0 -62 -30 -112h-781v-353h660q121 0 121 -110q0 -35 -12 -71t-19 -42h-750v-383h799v-223h-1046v1266q0 139 149 139h786q123 0 123 -111z" />
    <glyph glyph-name="F" unicode="F" horiz-adv-x="1196" 
d="M150 1266q0 139 149 139h727q123 0 123 -111q0 -68 -31 -112h-721v-373h570q123 0 123 -111q0 -40 -12 -72t-19 -40h-662v-586h-247v1266z" />
    <glyph glyph-name="G" unicode="G" horiz-adv-x="1472" 
d="M1112 565h-240q-121 0 -120 107q0 38 12 72t18 40h424q145 0 146 -139v-647q-32 -6 -50 -8t-130 -15t-278 -12q-357 0 -579 187q-227 200 -227 550q0 168 58 308q114 275 411 383q141 51 307 51t273 -37q91 -22 137 -56q76 -56 77 -104t-36 -102q-27 -31 -62 -58
q-61 61 -126 86q-67 25 -127 38t-154 13t-190 -34q-198 -73 -275 -270q-37 -94 -37 -222q0 -260 154 -387t421 -127q135 0 193 13v370z" />
    <glyph glyph-name="H" unicode="H" horiz-adv-x="1507" 
d="M1114 1292q0 113 127 113q37 0 71 -9t46 -18v-1378h-244v618h-721v-618h-243v1292q0 59 34 84q30 29 80 29t86 -10l43 -15v-538h721v450z" />
    <glyph glyph-name="I" unicode="I" horiz-adv-x="542" 
d="M150 1292q0 59 34 84q30 29 80 29t86 -10l43 -15v-1380h-243v1292z" />
    <glyph glyph-name="J" unicode="J" horiz-adv-x="1202" 
d="M823 1292q0 113 127 113q37 0 71 -9t46 -18v-901q0 -368 -297 -477q-102 -37 -226 -37t-222 33q-172 70 -256 162q-29 35 -43 57l163 141q37 -61 97 -102q59 -41 110 -57q53 -23 123 -23q147 0 225 70q37 37 62 98q20 68 20 152v798z" />
    <glyph glyph-name="K" unicode="K" horiz-adv-x="1359" 
d="M150 1292q0 59 34 84q30 29 80 29t86 -10l43 -15v-571q100 94 140 132t190 173t211 187q61 51 102 77t107 27q66 0 102 -29q37 -23 53 -43q-10 -9 -40 -35t-76 -69q-48 -43 -96 -85t-84 -76t-120 -106t-141 -126q-96 -86 -100 -91q439 -385 709 -745h-301
q-71 88 -219 242q-149 154 -255 250q-117 100 -182 153v-645h-243v1292z" />
    <glyph glyph-name="L" unicode="L" horiz-adv-x="1126" 
d="M150 1292q0 59 34 84q30 29 80 29t86 -10l43 -15v-1157h723v-223h-966v1292z" />
    <glyph glyph-name="M" unicode="M" horiz-adv-x="1835" 
d="M139 0q0 12 3 63t5 121t13 193q6 127 13 277t14 252t11 174t9 123q4 50 4 67q2 74 48 104t106 31q59 -1 101 -19t58 -34q41 -82 101 -204t84 -165q29 -67 84 -173q55 -105 90 -175t39 -76q8 19 38 77t48 97l58 115q38 76 68 137t78 154q16 37 42 88t28 57q59 121 182 121
q66 0 101 -16q39 -12 51 -25q0 -18 7 -117t13 -219q6 -119 12 -213t11 -215q6 -121 14 -226t11 -200t10 -174h-240q-4 35 -6 118t-23 406q-8 193 -24 410q-2 82 -6 113l-49 -99q-43 -86 -68 -133q-33 -73 -74 -153t-74 -154q-43 -82 -65 -135l-49 -99h-201q-40 91 -185 384
q-145 294 -194 384l-55 -1042h-242z" />
    <glyph glyph-name="N" unicode="N" horiz-adv-x="1505" 
d="M150 1274q0 72 43 102q47 29 104 29q57 -1 85 -15t60 -32q29 -33 66 -88q43 -53 106 -148q45 -59 131 -184l136 -197q90 -131 233 -352v903q0 59 33 84q31 29 101 29t106 -27v-1378h-246q-124 194 -203 307q-57 94 -264 393q-80 120 -119 174t-81 113t-50 70v-1057h-241
v1274z" />
    <glyph glyph-name="O" unicode="O" horiz-adv-x="1677" 
d="M1331 704q0 218 -141 369q-130 146 -352 146q-214 0 -354 -146t-140 -367t139 -374q146 -146 356 -146t351 146q141 154 141 372zM1372 1229q215 -215 215 -527t-215 -526q-222 -213 -535 -213t-534 213q-215 214 -215 526t215 527q223 213 535 213t534 -213z" />
    <glyph glyph-name="P" unicode="P" horiz-adv-x="1355" 
d="M387 0h-237v1272q0 68 34 96t74 36q117 21 369 21q327 0 487 -129t160 -344q0 -94 -33 -186q-80 -191 -301 -250q-121 -37 -289 -37q-57 0 -86 4l-82 4q-20 4 -63 9l-33 4v-500zM635 686q389 0 389 266t-403 267q-171 0 -234 -13v-499q131 -21 248 -21z" />
    <glyph glyph-name="Q" unicode="Q" horiz-adv-x="1677" 
d="M1200 344q131 131 131 354t-141 375q-130 146 -352 146q-214 0 -356 -148q-138 -144 -138 -367t139 -372q141 -148 355 -148q100 0 180 37l-113 139q-55 70 -55 103t14 61q25 25 52 41t98 23zM303 1229q219 211 533 212t536 -212q215 -215 215 -527q0 -162 -63 -305
q-70 -145 -176 -237l188 -236l-180 -137l-195 250q-136 -68 -310 -69q-321 -2 -548 210q-215 219 -215 528q0 308 215 523z" />
    <glyph glyph-name="R" unicode="R" horiz-adv-x="1376" 
d="M387 733q8 0 62 -8t167 -8q218 0 310 69q84 58 86 181q0 249 -398 252q-164 0 -227 -13v-473zM597 510q-67 0 -210 14v-524h-237v1272q0 68 34 96t72 36q111 21 365 21q321 -1 481 -123t160 -333q0 -145 -70 -244q-78 -100 -195 -150q23 -31 88 -131q113 -188 168 -301
q39 -68 76 -143h-282l-54 106q-6 12 -35 64t-80 148q-51 95 -122 200q-92 -8 -159 -8z" />
    <glyph glyph-name="S" unicode="S" horiz-adv-x="1411" 
d="M115 1015q-1 93 31 169q63 153 278 225q115 33 277 33t267 -30t140 -48q36 -20 58 -34t43 -42q21 -30 21 -70t-27 -80q-28 -40 -54 -57q-18 23 -59 45q-38 29 -100 52q-139 51 -269 52q-218 2 -289 -54q-68 -43 -69 -132q-1 -88 57 -131t205 -71l229 -43
q221 -39 335 -133t114 -279t-152 -305q-159 -119 -444 -119q-129 1 -221 19t-187 47q-121 47 -211 102l107 191q218 -141 516 -144q172 0 256 51q76 57 75 150q0 47 -15 78t-52 59q-76 45 -193 62l-225 40q-442 82 -442 397z" />
    <glyph glyph-name="T" unicode="T" horiz-adv-x="1341" 
d="M10 1292q0 51 31 113h1169q121 0 121 -111q0 -39 -12 -69q-8 -33 -19 -43h-516v-1182h-243v1182h-410q-121 0 -121 110z" />
    <glyph glyph-name="U" unicode="U" horiz-adv-x="1548" 
d="M135 1292q0 113 127 113q37 0 71 -9t46 -18v-727q0 -252 88 -348q86 -119 307 -119q106 0 187 29q80 33 120 90q88 96 88 348v641q0 61 35 84q29 29 101 29t108 -27v-747q0 -324 -160 -496t-479 -172t-479 172t-160 496v661z" />
    <glyph glyph-name="V" unicode="V" horiz-adv-x="1417" 
d="M219 1390q22 -14 27 -14q29 -84 90 -250q250 -627 360 -872q101 214 227 540t171 439t77 143q35 29 95 29t94 -21q41 -20 47 -24q-5 -16 -23 -62l-28 -71q-61 -147 -103 -251t-105 -243q-63 -140 -101 -241q-59 -140 -101 -232t-119 -260h-270q-55 110 -89 182t-69 148
t-47 104t-48 108t-47 108q-11 26 -72 171q-118 277 -160 391q-33 117 15 164q30 29 93 29q64 -1 86 -15z" />
    <glyph glyph-name="W" unicode="W" horiz-adv-x="2054" 
d="M132 1405q54 0 85 -12l37 -17q4 -12 37 -137q99 -330 111 -358q12 -29 36 -103t37 -114l66 -197q31 -96 59 -172q37 123 81 279q43 156 69 243q26 88 56 205q30 116 40 150t17 64q22 96 58 133q36 36 93 36t95 -12t46 -19q41 -181 111 -450q69 -269 94 -351
q31 -123 78 -276q14 43 64 192t112 340q30 109 58 198t48 159t25 86q20 70 55 100q32 33 94 33q91 0 146 -41q-47 -174 -118 -381t-89 -261q-17 -54 -63 -179t-72 -194t-71 -187q-46 -118 -62 -162h-275q-4 10 -14 44t-24 74t-32 99q-16 58 -32 117q-16 58 -30 106
q-61 201 -97 365q-23 82 -43 170q-21 -90 -79 -297q-57 -208 -71 -248q-23 -88 -42 -148t-45 -145q-26 -86 -48 -137h-272q-6 16 -55 136t-72 186q-23 65 -92 254t-88 250q-18 61 -44 128q-26 68 -36 105q-59 177 -59 229q-1 53 31 85t86 32z" />
    <glyph glyph-name="X" unicode="X" horiz-adv-x="1421" 
d="M80 1310q0 36 30 66t76 29q46 0 74 -10t31 -13q53 -63 67 -84q14 -20 48 -61t60 -73q28 -32 99 -128q41 -49 127 -155q33 41 83 109q51 68 67 88q16 21 39 52t39 53q16 23 42 59t60 73q56 68 104 82q25 8 62 8t82 -21t65 -43q-41 -51 -63 -79t-64 -80q-42 -51 -86 -110
q-45 -59 -138 -175q-93 -117 -148 -188q120 -147 154 -191t177 -219q143 -176 230 -299h-297q-6 8 -72 92t-93 122q-29 38 -95 119t-152 187q-140 -182 -225 -299q-47 -59 -77 -103t-55 -76q-24 -32 -30 -42h-276q25 37 152 206t154 206t54 69l160 209q-185 221 -243 289
q-58 67 -112 135t-82 114t-28 82z" />
    <glyph glyph-name="Y" unicode="Y" horiz-adv-x="1363" 
d="M10 1306q0 46 31 70q29 29 75 29t72 -10l37 -15q49 -74 207 -302t246 -333q95 126 158 222t96 145t47 70l82 129q57 94 156 94q51 0 92 -21q43 -29 45 -30q-51 -105 -244 -383q-55 -82 -88 -127t-82 -115t-147 -201v-528h-244v528q-117 144 -166 211q-49 66 -144 189
q-95 124 -200 288q-29 44 -29 90z" />
    <glyph glyph-name="Z" unicode="Z" horiz-adv-x="1310" 
d="M188 1182q-123 0 -122 110q0 39 13 73t19 40h998q166 0 166 -133q0 -61 -41 -117q-62 -98 -484 -537q-102 -107 -169 -174q-66 -67 -98 -99q-32 -31 -68 -67t-54 -55h907v-223h-1228v227l247 248q150 147 250 254q268 268 428 453h-764z" />
    <glyph glyph-name="bracketleft" unicode="[" horiz-adv-x="718" 
d="M694 1400q0 -52 -20 -80t-90 -28h-211v-1341h307v-215h-530v1640q0 131 137 131h383q24 -55 24 -107z" />
    <glyph glyph-name="backslash" unicode="\" horiz-adv-x="702" 
d="M122 1509q85 0 116 -96l467 -1431h-224l-481 1476q8 12 40 32t82 19z" />
    <glyph glyph-name="bracketright" unicode="]" horiz-adv-x="718" 
d="M133 1292q-70 0 -90 28t-20 80t24 107h383q137 0 137 -131v-1640h-530v215h307v1341h-211z" />
    <glyph glyph-name="asciicircum" unicode="^" horiz-adv-x="1015" 
d="M507 1407q42 0 79 -14q14 -10 41 -27l340 -676h-228l-235 484l-240 -484h-217l299 594q60 123 161 123z" />
    <glyph glyph-name="underscore" unicode="_" horiz-adv-x="1024" 
d="M0 -143h1024v-121h-1024v121z" />
    <glyph glyph-name="grave" unicode="`" horiz-adv-x="1024" 
d="M285 1350q0 17 26 71q16 18 37 37q71 40 168 -31l223 -161l-75 -107z" />
    <glyph glyph-name="a" unicode="a" horiz-adv-x="1165" 
d="M558 479q-128 0 -193 -41q-63 -43 -63 -126t58 -128q73 -41 199 -42q125 -1 180 5l74 13v299q-15 2 -71 11t-184 9zM1044 4q-210 -33 -508 -33q-110 0 -208 27t-158 75t-80 107q-22 53 -22 131q0 77 24 139q49 123 238 173q106 20 229 20t184 -7q62 -7 68 -7
q0 131 -88 192q-68 47 -207 47t-209 -28t-90 -43q-14 10 -33 39q-39 43 -8 127q63 92 294 93q153 1 251 -24q102 -20 175 -74t108 -135q41 -80 40 -202v-617z" />
    <glyph glyph-name="b" unicode="b" horiz-adv-x="1280" 
d="M644 182q73 0 126 27q122 52 166 172q23 63 22 133q0 138 -86 240q-94 94 -229 94q-70 0 -131 -25q-118 -62 -164 -178q-47 -130 0 -266q25 -59 66 -105q92 -92 230 -92zM677 1057q114 0 208 -39t166 -113t108 -172q41 -96 41 -214q0 -246 -156 -394q-158 -154 -398 -154
q-248 0 -400 152t-152 440v838q0 110 125 108q41 0 109 -22v-588q51 63 141 113q94 45 208 45z" />
    <glyph glyph-name="c" unicode="c" horiz-adv-x="1026" 
d="M240 915q150 142 390 142q195 0 296 -58q43 -23 63 -55q44 -69 -6 -137q-39 -41 -53 -53q-39 37 -107 65q-68 33 -156 33q-156 0 -249 -82q-97 -93 -96 -257t100 -255q90 -80 254 -80q86 0 151 27q78 37 86 43l99 -174q-35 -23 -62 -33q-41 -23 -82 -33q-80 -35 -213 -36
q-260 -2 -413 139q-164 147 -164 401t162 403z" />
    <glyph glyph-name="d" unicode="d" horiz-adv-x="1280" 
d="M952 512q0 70 -22 130q-45 121 -164 181q-61 25 -131 25t-128 -27q-120 -56 -165 -180t2 -260q20 -59 66 -102q84 -97 224 -97q71 0 132 26q113 48 164 171q22 63 22 133zM1184 563q0 -147 -42 -259q-82 -219 -290 -296q-102 -37 -219 -37q-239 0 -397 154t-158 394
q0 118 41 214q37 98 109 172t165 113q94 39 209 39t209 -45q90 -49 141 -113v502q0 110 123 108q41 0 109 -22v-924z" />
    <glyph glyph-name="e" unicode="e" horiz-adv-x="1128" 
d="M406 559h86q201 0 290 51q64 35 64 112t-62 116t-147 39q-150 0 -238 -99q-41 -45 -59 -100q-21 -49 -25 -117q31 -2 91 -2zM76 506q0 125 43 223q39 100 114 176q164 152 394 152q117 0 194 -29q82 -25 137 -74q115 -87 115 -237q0 -158 -121 -230q-70 -45 -182 -65
q-115 -25 -291 -25h-78q-24 4 -75 4q16 -104 100 -169q84 -64 234 -64t288 72l86 -164q-180 -103 -413 -104q-234 -2 -383 139q-162 145 -162 395z" />
    <glyph glyph-name="f" unicode="f" horiz-adv-x="768" 
d="M358 813v-813h-233v1092q0 208 117 321q113 98 290 97t250 -40q70 -43 70 -102q0 -35 -21 -61q-14 -23 -40 -41q-71 59 -200 59q-128 0 -180 -60t-53 -175v-62h308q124 0 122 -108q0 -48 -26 -107h-404z" />
    <glyph glyph-name="g" unicode="g" horiz-adv-x="1280" 
d="M637 846q-76 0 -129 -27q-115 -47 -164 -174q-23 -61 -22 -127q0 -150 86 -235q84 -90 227 -90t227 92q43 45 64 102q24 57 24 130q-1 135 -85 232q-85 97 -228 97zM608 -4q-229 0 -383 143q-147 147 -147 381t160 385q160 152 400 152t393 -147t153 -437v-295
q0 -166 -44 -278q-88 -226 -309 -297q-111 -33 -203 -33t-182 8q-166 28 -242 63q-15 7 -20 9l64 174q6 -2 35 -17q63 -18 113 -33t152 -15q103 -1 163 16q61 10 120 53q57 47 89 114t32 183v25q-47 -54 -135 -104t-209 -50z" />
    <glyph glyph-name="h" unicode="h" horiz-adv-x="1234" 
d="M672 1059q199 0 325 -105q119 -115 119 -313v-641h-233v571q0 133 -56 205q-57 70 -194 70t-211 -80q-70 -86 -70 -215v-551h-233v1401q0 110 125 108q40 0 108 -22v-563q41 49 124 92q82 43 196 43z" />
    <glyph glyph-name="i" unicode="i" horiz-adv-x="493" 
d="M246 1489q59 0 100 -41t41 -100q0 -58 -41 -100t-100 -42t-101 41q-41 41 -41 101t41 100q42 41 101 41zM129 920q0 110 125 108q42 0 108 -22v-1006h-233v920z" />
    <glyph glyph-name="j" unicode="j" horiz-adv-x="493" 
d="M246 1489q59 0 100 -41t41 -100q0 -58 -41 -100t-100 -42t-101 41q-41 41 -41 101t41 100q42 41 101 41zM129 -55v975q0 110 125 108q42 0 108 -22v-1043q0 -115 -32 -189q-86 -204 -348 -204q-76 0 -136 14q-59 14 -75 23q-16 4 -37 14l61 168q64 -29 128 -30
q63 -1 89 8q35 6 62 26q20 18 41 55q14 43 14 97z" />
    <glyph glyph-name="k" unicode="k" horiz-adv-x="1140" 
d="M954 1028q55 0 97 -29q41 -31 49 -51q-29 -27 -117 -96l-154 -111q-61 -47 -110 -81t-137 -95q160 -119 317 -278q147 -156 242 -287h-291q-18 23 -105 119q-117 120 -231 215q-115 96 -162 129v-463h-233v1401q0 110 125 108q40 0 108 -22v-838q29 18 74 56
q43 31 128 92t135 99t91 68t80 47t94 17z" />
    <glyph glyph-name="l" unicode="l" horiz-adv-x="493" 
d="M362 0h-233v1401q0 110 125 108q42 0 108 -22v-1487z" />
    <glyph glyph-name="m" unicode="m" horiz-adv-x="1902" 
d="M1337 1057q201 0 324 -103t123 -290v-664h-234v584q0 141 -63 202q-66 60 -170 60t-178 -68q-70 -70 -70 -219v-559h-233v559q0 150 -70 219q-74 68 -178 68t-170 -62t-66 -202v-582h-233v662q0 190 131 294q122 101 334 101q108 0 210 -46t162 -141q120 187 381 187z
" />
    <glyph glyph-name="n" unicode="n" horiz-adv-x="1236" 
d="M618 846q-266 0 -266 -285v-561h-233v621q0 199 143 321q63 53 156 86q96 29 200 29q219 0 361 -115q139 -125 139 -321v-621h-233v561q0 139 -68 212t-199 73z" />
    <glyph glyph-name="o" unicode="o" horiz-adv-x="1282" 
d="M640 178q134 0 232 96q89 110 89 244t-89 238q-91 96 -232 96t-230 -96q-90 -103 -88 -242q0 -70 22 -133q23 -53 66 -107q47 -47 102 -69q53 -27 128 -27zM641 1057q241 0 401 -156q162 -149 162 -387q0 -113 -43 -214q-83 -194 -297 -288q-106 -41 -223 -41t-223 41
q-98 43 -178 115q-76 72 -119 173t-43 216t43 215t119 170q160 156 401 156z" />
    <glyph glyph-name="p" unicode="p" horiz-adv-x="1280" 
d="M644 180q139 0 228 96q88 104 87 244t-87 230q-43 45 -102 69q-53 27 -126 27q-136 0 -230 -92q-41 -46 -65 -106q-50 -126 -1 -265q48 -119 164 -178q61 -25 132 -25zM94 467q0 278 154 434t398 156t398 -154q156 -148 156 -394q0 -118 -41 -214q-37 -100 -110 -170
q-63 -66 -164 -113q-104 -39 -216 -39t-200 46t-141 110v-539h-234v877z" />
    <glyph glyph-name="q" unicode="q" horiz-adv-x="1280" 
d="M952 517q0 71 -22 134q-86 195 -296 195q-139 0 -224 -96q-90 -90 -89 -234t89 -240q83 -96 227 -96q68 0 129 25q186 97 186 312zM610 -27q-112 0 -217 39q-100 47 -164 113q-74 70 -110 170q-41 96 -41 214t42 220q85 205 290 287q106 41 227 41q392 0 508 -328
q39 -111 39 -262v-877h-232v539q-51 -63 -140 -109q-90 -46 -202 -47z" />
    <glyph glyph-name="r" unicode="r" horiz-adv-x="851" 
d="M592 848q-240 0 -240 -254v-594h-233v662q0 188 114 292q119 102 322 103q127 0 211 -37q80 -33 80 -109q0 -35 -20 -67t-31 -41q-93 45 -203 45z" />
    <glyph glyph-name="s" unicode="s" horiz-adv-x="1124" 
d="M563 154q242 0 242 122q0 57 -43 89q-45 29 -154 41l-159 18q-94 10 -150 31q-130 32 -197 147q-26 59 -26 130t26 124q50 123 226 176q86 25 256 25t288 -46t119 -124q0 -18 -8 -43l-16 -24t-17 -21q-9 -8 -16 -15q-8 -8 -12 -7t-37 26q-74 38 -189 65q-66 12 -151 13
q-238 0 -238 -125q0 -55 45 -82t129 -37l209 -27q170 -22 264 -92t94 -216t-120 -239q-121 -92 -353 -92q-164 0 -358 54q-116 45 -160 73l88 158q108 -60 224 -81q115 -21 194 -21z" />
    <glyph glyph-name="t" unicode="t" horiz-adv-x="823" 
d="M821 76q-122 -102 -332 -105q-180 -1 -272 93t-92 245v901q0 109 123 109q60 0 102 -21q6 -2 8 -2v-268h297q125 0 123 -108q0 -48 -26 -107h-394v-457q0 -98 50 -138t143 -40t176 53z" />
    <glyph glyph-name="u" unicode="u" horiz-adv-x="1239" 
d="M885 920q0 110 123 108q42 0 110 -22v-590q0 -106 -37 -187q-63 -162 -260 -229q-97 -29 -203 -29t-202 31q-190 61 -260 227q-37 80 -37 187v504q0 110 125 108q40 0 108 -22v-539q0 -285 266 -285t267 285v453z" />
    <glyph glyph-name="v" unicode="v" horiz-adv-x="1153" 
d="M16 926q0 42 29 72t81 30t80 -9t30 -11q10 -27 80 -200t102 -239q43 -104 86 -184q31 -70 65 -137q51 90 142 305q92 215 103 243t29 68t30 73q33 91 131 91q59 0 95 -20t38 -23q-32 -115 -109 -277q-76 -162 -90 -192t-48 -100q-34 -68 -60 -121t-47 -95
q-21 -41 -35 -69q-37 -76 -70 -131h-229q-433 811 -433 926z" />
    <glyph glyph-name="w" unicode="w" horiz-adv-x="1671" 
d="M128 1028q54 0 70 -6l28 -10q11 -4 14 -4q65 -234 118 -393l33 -99q23 -73 88 -256q9 30 49 146q33 111 54 167q20 74 53 181t49 163q16 55 45 83t93 28t118 -27q6 -20 49 -167t62 -202q18 -55 39 -122t84 -250q150 414 212 645q18 61 48 94q33 29 90 29t93 -19t38 -22
q-25 -114 -156 -460q-131 -347 -211 -527h-241q-33 94 -43 127l-62 180q-12 37 -35 106t-47 153t-41 132q-17 -49 -41 -133q-24 -85 -47 -153t-53 -162t-44 -141q-15 -48 -38 -109h-242q-4 8 -166 399q-94 248 -102 273q-66 194 -68 262q0 26 28 60t82 34z" />
    <glyph glyph-name="x" unicode="x" horiz-adv-x="1171" 
d="M567 346q-250 -301 -282 -346h-275q10 16 108 133t139 170q42 54 74 91t89 104q-84 92 -191 199t-138 156q-31 48 -32 85q0 37 27 61q27 29 72 29t82 -8q18 -8 36 -14q7 -7 27 -31q19 -25 73 -83t97 -111t65 -74q21 -22 31 -35q53 66 80 96q70 80 124 149q53 69 99 95
q37 16 86 16q50 0 92 -24t50 -37q-14 -18 -56 -62q-39 -49 -114 -136t-215 -255q23 -27 71 -83t70 -82t68 -77t61 -69q14 -18 113 -129q51 -61 59 -74h-289q-59 74 -301 346z" />
    <glyph glyph-name="y" unicode="y" horiz-adv-x="1239" 
d="M217 -184q140 -58 337 -58q69 0 135 18q202 54 202 351q-41 -61 -129 -94q-86 -37 -190 -37t-183 29q-78 23 -143 77q-57 55 -94 131q-33 82 -33 179v508q0 108 123 108q25 0 69 -8q10 -4 41 -14v-547q0 -125 66 -193q61 -72 192 -72t203 72q72 76 72 215v439
q0 108 123 108q25 0 69 -8q10 -4 41 -14v-897q0 -276 -149 -414q-72 -65 -174 -95q-101 -30 -191 -30t-184 8q-200 33 -262 64q50 142 59 174z" />
    <glyph glyph-name="z" unicode="z" horiz-adv-x="1110" 
d="M51 926q0 54 27 102h833q63 0 95 -29q34 -25 34 -75t-22 -90q-24 -44 -256 -257q-12 -11 -50 -47t-88 -81l-85 -76q-41 -39 -111 -101t-78 -67h692v-205h-991v203q106 91 137 121t167 152q194 174 362 339h-543q-68 0 -96 27q-27 30 -27 84z" />
    <glyph glyph-name="braceleft" unicode="{" horiz-adv-x="743" 
d="M719 1399q0 -51 -19 -78q-16 -29 -77 -29h-15q-70 0 -94 -34t-25 -97v-258q0 -59 -15 -125t-75 -119q-37 -25 -63 -36q41 -23 69 -44q61 -46 74 -149q10 -41 10 -129v-219q0 -55 23 -94q25 -37 106 -37h87v-215h-154q-162 0 -226 89t-65 265v221q0 111 -51 156
q-53 43 -141 43h-31v221h31q88 0 141 43q51 45 51 156v221q0 74 14 149q18 63 50 113q41 47 93 71t134 23h143q25 -57 25 -108z" />
    <glyph glyph-name="bar" unicode="|" horiz-adv-x="516" 
d="M150 1411q0 100 114 98q39 0 64 -8l37 -12v-1759h-215v1681z" />
    <glyph glyph-name="braceright" unicode="}" horiz-adv-x="743" 
d="M119 1292q-61 0 -79 28t-17 80q0 52 24 107h143q160 0 228 -94q63 -98 63 -262v-221q0 -111 51 -156q53 -43 142 -43h31v-221h-31q-88 0 -142 -43q-51 -45 -51 -156v-221q0 -172 -63 -264q-68 -90 -228 -90h-153v215h86q82 0 106 37q23 39 23 94v219q0 88 10 129
q6 47 26 87q20 39 46 59q25 20 72 47q-27 12 -64 36q-66 58 -78 121q-12 64 -12 123v258q0 63 -25 97t-94 34h-14z" />
    <glyph glyph-name="asciitilde" unicode="~" horiz-adv-x="1284" 
d="M164 784q80 84 185 84q104 0 140 -10l49 -14t27 -8l154 -54q18 -6 48 -15t40 -13q49 -8 90 -8t74 32q29 43 37 96h184q-4 -139 -74 -247q-41 -49 -86 -70q-47 -27 -96 -27q-99 0 -160 21l-219 70q-115 36 -172 36q-112 0 -125 -129h-186q7 161 90 256z" />
  </font>
</defs>
</svg>
