<?xml version="1.0" encoding="utf-8"?>
<!-- Generator: Adobe Illustrator 18.0.0, SVG Export Plug-In . SVG Version: 6.00 Build 0)  -->
<!DOCTYPE svg PUBLIC "-//W3C//DTD SVG 1.1//EN" "http://www.w3.org/Graphics/SVG/1.1/DTD/svg11.dtd">
<svg version="1.1" id="watermelon" xmlns="http://www.w3.org/2000/svg" xmlns:xlink="http://www.w3.org/1999/xlink" x="0px" y="0px"
	 viewBox="0 0 39.3 39.3" enable-background="new 0 0 39.3 39.3" xml:space="preserve">
<path id="watermelon-skin" fill="#6BA31A" d="M32.6,0l-1.4,1.4c8.2,8.2,8.2,21.5,0,29.7c-8.2,8.2-21.5,8.2-29.7,0L0,32.6
	c4.5,4.5,10.4,6.7,16.3,6.7c5.9,0,11.8-2.2,16.3-6.7C41.6,23.6,41.6,9,32.6,0z"/>
<path id="watermelon-body" fill="#EA5279" d="M30,30c7.5-7.5,7.5-19.6,0-27.1L2.9,30C10.4,37.5,22.5,37.5,30,30z M30.2,8.8
	c0.8,0,1.4,0.6,1.4,0.6S31,10,30.2,10c-0.8,0-1.4-0.6-1.4-0.6S29.5,8.8,30.2,8.8z M25.9,21.2c0,0,0.6,0.6,0.6,1.4
	c0,0.8-0.6,1.4-0.6,1.4s-0.6-0.6-0.6-1.4C25.3,21.8,25.9,21.2,25.9,21.2z M28.3,16.9c0,0-0.7,0.5-1.4,0.4c-0.8-0.1-1.3-0.8-1.3-0.8
	s0.7-0.5,1.4-0.4S28.3,16.9,28.3,16.9z M23.5,24.5c0,0-0.3,0.8-1,1.1c-0.7,0.3-1.5,0-1.5,0s0.3-0.8,1-1.1
	C22.7,24.2,23.5,24.5,23.5,24.5z M21,19.1c0,0,0.6,0.6,0.6,1.4c0,0.8-0.6,1.4-0.6,1.4s-0.6-0.6-0.6-1.4S21,19.1,21,19.1z M21.8,14.6
	c0,0,0.9-0.1,1.4,0.4c0.6,0.5,0.7,1.4,0.7,1.4S23,16.5,22.4,16C21.9,15.5,21.8,14.6,21.8,14.6z M16.2,19.8c0,0,0.6,0.6,0.6,1.4
	c0,0.8-0.6,1.4-0.6,1.4s-0.6-0.6-0.6-1.4C15.6,20.4,16.2,19.8,16.2,19.8z M16.5,26c0.6,0.4,0.8,1.3,0.8,1.3s-0.9,0.1-1.5-0.3
	c-0.6-0.4-0.8-1.3-0.8-1.3S15.9,25.5,16.5,26z M10.6,29.7c-0.6-0.5-0.7-1.3-0.7-1.3s0.9-0.1,1.5,0.4c0.6,0.5,0.7,1.3,0.7,1.3
	S11.2,30.2,10.6,29.7z"/>
</svg>
